<svg width="652" height="196" viewBox="0 0 652 196" fill="none" xmlns="http://www.w3.org/2000/svg">
<path d="M17.2468 7.64062C18.0598 8.77878 18.4968 10.1425 18.4968 11.5412V12.8906C18.9253 12.8906 19.3414 12.7474 19.6791 12.4837C20.0168 12.22 20.2567 11.8511 20.3606 11.4354L20.4968 10.8906L20.8663 11.334C21.4621 12.0489 21.7854 12.9516 21.7789 13.8821C21.7725 14.8127 21.4367 15.7108 20.8311 16.4174C20.6041 16.6821 20.4855 17.0228 20.4988 17.3712C20.5122 17.7197 20.6565 18.0502 20.9031 18.2968C21.0407 18.4345 21.2059 18.5416 21.3877 18.6111C21.5696 18.6806 21.7641 18.7109 21.9584 18.7002C22.1528 18.6894 22.3427 18.6377 22.5158 18.5486C22.6889 18.4594 22.8412 18.3347 22.9628 18.1827L23.9968 16.8906L24.9968 19.3906C25.4503 20.9021 25.486 22.5083 25.1002 24.0385C24.7144 25.5687 23.9215 26.9659 22.8056 28.0818L22.6795 28.2079C20.9619 29.9256 18.6322 30.8906 16.2031 30.8906H15.1828C13.6011 30.8906 12.0464 30.481 10.67 29.7017C9.29359 28.9224 8.14247 27.8 7.3287 26.4437C6.35428 24.8197 5.90726 22.9335 6.0492 21.0448C6.19114 19.1562 6.91505 17.358 8.12127 15.8978L12.169 10.9979C12.5679 10.515 12.8242 9.93056 12.9093 9.31007C12.9943 8.68959 12.9046 8.05769 12.6503 7.48537C12.3276 6.7594 12.2719 5.94271 12.4932 5.17967C12.7144 4.41663 13.1983 3.75637 13.8593 3.31562L15.9968 1.89062V3.74007C15.9968 5.13875 16.4339 6.50247 17.2468 7.64062Z" fill="url(#paint0_linear_1_353)"/>
<path d="M19.689 27.4788L19.6934 27.4744C20.4711 26.6907 21.026 25.714 21.3009 24.6447C21.5758 23.5754 21.5608 22.4522 21.2575 21.3906L19.8029 22.8452C19.6657 22.9825 19.5027 23.0914 19.3233 23.1657C19.144 23.24 18.9517 23.2783 18.7576 23.2783C18.5635 23.2783 18.3712 23.24 18.1919 23.1657C18.0125 23.0914 17.8495 22.9825 17.7123 22.8452C17.4514 22.5844 17.2974 22.2354 17.2807 21.8669C17.2639 21.4984 17.3855 21.1369 17.6217 20.8535C18.108 20.27 18.4136 19.5573 18.5012 18.8028C18.5887 18.0483 18.4545 17.2847 18.1148 16.6053L15.7575 11.8906L15.395 15.8781C15.3515 16.3563 15.2119 16.8209 14.9845 17.2438C14.7571 17.6668 14.4466 18.0394 14.0717 18.3395L12.0109 19.9882C11.4639 20.4258 11.0223 20.9808 10.7188 21.6122C10.4154 22.2436 10.2578 22.9351 10.2578 23.6357V24.2031C10.2578 24.8879 10.4084 25.5642 10.6988 26.1844C10.9892 26.8045 11.4125 27.3532 11.9385 27.7915C12.7902 28.5012 13.8665 28.8849 14.975 28.874L16.4199 28.8597C17.6488 28.8474 18.8234 28.3512 19.689 27.4788Z" fill="#FDD04A"/>
<path d="M7.5 12.3906C7.36739 12.3906 7.24021 12.3379 7.14645 12.2442C7.05268 12.1504 7 12.0232 7 11.8906V10.8906C7 10.758 7.05268 10.6308 7.14645 10.537C7.24021 10.4433 7.36739 10.3906 7.5 10.3906C7.63261 10.3906 7.75979 10.4433 7.85355 10.537C7.94732 10.6308 8 10.758 8 10.8906V11.8906C8 12.0232 7.94732 12.1504 7.85355 12.2442C7.75979 12.3379 7.63261 12.3906 7.5 12.3906Z" fill="#FE691E"/>
<path d="M9 9.89062C8.86739 9.89062 8.74021 9.83794 8.64645 9.74417C8.55268 9.65041 8.5 9.52323 8.5 9.39062V8.39062C8.5 8.25802 8.55268 8.13084 8.64645 8.03708C8.74021 7.94331 8.86739 7.89062 9 7.89062C9.13261 7.89062 9.25979 7.94331 9.35355 8.03708C9.44732 8.13084 9.5 8.25802 9.5 8.39062V9.39062C9.5 9.52323 9.44732 9.65041 9.35355 9.74417C9.25979 9.83794 9.13261 9.89062 9 9.89062Z" fill="#FF8D54"/>
<path d="M7 7.89062C6.86739 7.89062 6.74021 7.83794 6.64645 7.74417C6.55268 7.65041 6.5 7.52323 6.5 7.39062V6.39062C6.5 6.25802 6.55268 6.13084 6.64645 6.03708C6.74021 5.94331 6.86739 5.89062 7 5.89062C7.13261 5.89062 7.25979 5.94331 7.35355 6.03708C7.44732 6.13084 7.5 6.25802 7.5 6.39062V7.39062C7.5 7.52323 7.44732 7.65041 7.35355 7.74417C7.25979 7.83794 7.13261 7.89062 7 7.89062Z" fill="#FFB895"/>
<path d="M24.5 13.8906C24.3674 13.8906 24.2402 13.8379 24.1464 13.7442C24.0527 13.6504 24 13.5232 24 13.3906V12.3906C24 12.258 24.0527 12.1308 24.1464 12.037C24.2402 11.9433 24.3674 11.8906 24.5 11.8906C24.6326 11.8906 24.7598 11.9433 24.8536 12.037C24.9473 12.1308 25 12.258 25 12.3906V13.3906C25 13.5232 24.9473 13.6504 24.8536 13.7442C24.7598 13.8379 24.6326 13.8906 24.5 13.8906Z" fill="#FE691E"/>
<path d="M23 10.3906C22.8674 10.3906 22.7402 10.3379 22.6464 10.2442C22.5527 10.1504 22.5 10.0232 22.5 9.89062V8.89062C22.5 8.75802 22.5527 8.63084 22.6464 8.53708C22.7402 8.44331 22.8674 8.39062 23 8.39062C23.1326 8.39062 23.2598 8.44331 23.3536 8.53708C23.4473 8.63084 23.5 8.75802 23.5 8.89062V9.89062C23.5 10.0232 23.4473 10.1504 23.3536 10.2442C23.2598 10.3379 23.1326 10.3906 23 10.3906Z" fill="#FF8D54"/>
<path d="M25 8.89062C24.8674 8.89062 24.7402 8.83794 24.6464 8.74417C24.5527 8.65041 24.5 8.52324 24.5 8.39062V6.89062C24.5 6.75802 24.5527 6.63084 24.6464 6.53708C24.7402 6.44331 24.8674 6.39062 25 6.39062C25.1326 6.39062 25.2598 6.44331 25.3536 6.53708C25.4473 6.63084 25.5 6.75802 25.5 6.89062V8.39062C25.5 8.52324 25.4473 8.65041 25.3536 8.74417C25.2598 8.83794 25.1326 8.89062 25 8.89062Z" fill="#FFB895"/>
<path d="M40.928 20.3906V8.87062H51.44V10.1666H42.224V13.9746H49.632V15.2866H42.224V20.3906H40.928ZM54.3465 20.3906C53.9945 20.3906 53.6692 20.3053 53.3705 20.1346C53.0825 19.964 52.8532 19.7346 52.6825 19.4466C52.5118 19.148 52.4265 18.8226 52.4265 18.4706V8.87062H53.7225V18.4706C53.7225 18.6413 53.7812 18.7906 53.8985 18.9186C54.0265 19.036 54.1758 19.0946 54.3465 19.0946H62.0265C62.1972 19.0946 62.3412 19.036 62.4585 18.9186C62.5865 18.7906 62.6505 18.6413 62.6505 18.4706V8.87062H63.9465V18.4706C63.9465 18.8226 63.8612 19.148 63.6905 19.4466C63.5198 19.7346 63.2852 19.964 62.9865 20.1346C62.6985 20.3053 62.3785 20.3906 62.0265 20.3906H54.3465ZM70.2525 20.3906V10.1666H65.1325V8.87062H76.6525V10.1666H71.5485V20.3906H70.2525ZM79.7371 20.3906C79.3851 20.3906 79.0598 20.3053 78.7611 20.1346C78.4731 19.964 78.2438 19.7346 78.0731 19.4466C77.9025 19.148 77.8171 18.8226 77.8171 18.4706V8.87062H79.1131V18.4706C79.1131 18.6413 79.1718 18.7906 79.2891 18.9186C79.4171 19.036 79.5665 19.0946 79.7371 19.0946H87.4171C87.5878 19.0946 87.7318 19.036 87.8491 18.9186C87.9771 18.7906 88.0411 18.6413 88.0411 18.4706V8.87062H89.3371V18.4706C89.3371 18.8226 89.2518 19.148 89.0811 19.4466C88.9105 19.7346 88.6758 19.964 88.3771 20.1346C88.0891 20.3053 87.7691 20.3906 87.4171 20.3906H79.7371ZM100.827 20.3906L97.0671 15.9106H98.7631L102.539 20.3746V20.3906H100.827ZM91.0991 20.3906V8.88662H100.699C101.051 8.88662 101.371 8.97729 101.659 9.15862C101.958 9.32929 102.192 9.55862 102.363 9.84662C102.534 10.1346 102.619 10.4546 102.619 10.8066V14.1826C102.619 14.5346 102.534 14.8546 102.363 15.1426C102.192 15.4306 101.958 15.6653 101.659 15.8466C101.371 16.0173 101.051 16.1026 100.699 16.1026H92.3951V20.3906H91.0991ZM93.0191 14.7906H100.699C100.87 14.7906 101.014 14.732 101.131 14.6146C101.259 14.4973 101.323 14.3533 101.323 14.1826V10.8066C101.323 10.636 101.259 10.492 101.131 10.3746C101.014 10.2466 100.87 10.1826 100.699 10.1826H93.0191C92.8485 10.1826 92.6991 10.2466 92.5711 10.3746C92.4538 10.492 92.3951 10.636 92.3951 10.8066V14.1826C92.3951 14.3533 92.4538 14.4973 92.5711 14.6146C92.6991 14.732 92.8485 14.7906 93.0191 14.7906ZM104.334 20.3906V8.87062H114.846V10.1666H105.63V13.9746H113.038V15.2866H105.63V19.0946H114.846V20.3906H104.334ZM122.8 20.3906C122.448 20.3906 122.122 20.3053 121.824 20.1346C121.536 19.964 121.306 19.7346 121.136 19.4466C120.965 19.148 120.88 18.8226 120.88 18.4706V10.7906C120.88 10.4386 120.965 10.1186 121.136 9.83062C121.306 9.53196 121.536 9.29729 121.824 9.12662C122.122 8.95596 122.448 8.87062 122.8 8.87062H130.48C130.832 8.87062 131.152 8.95596 131.44 9.12662C131.738 9.29729 131.973 9.53196 132.144 9.83062C132.314 10.1186 132.4 10.4386 132.4 10.7906V18.4706C132.4 18.8226 132.314 19.148 132.144 19.4466C131.973 19.7346 131.738 19.964 131.44 20.1346C131.152 20.3053 130.832 20.3906 130.48 20.3906H122.8ZM122.8 19.0946H130.48C130.65 19.0946 130.794 19.036 130.912 18.9186C131.04 18.7906 131.104 18.6413 131.104 18.4706V10.7906C131.104 10.62 131.04 10.476 130.912 10.3586C130.794 10.2306 130.65 10.1666 130.48 10.1666H122.8C122.629 10.1666 122.48 10.2306 122.352 10.3586C122.234 10.476 122.176 10.62 122.176 10.7906V18.4706C122.176 18.6413 122.234 18.7906 122.352 18.9186C122.48 19.036 122.629 19.0946 122.8 19.0946ZM134.194 20.3906V8.87062H144.706V10.1666H135.49V13.9746H142.898V15.2866H135.49V20.3906H134.194ZM150.116 20.3906V8.87062H160.628V10.1666H151.412V13.9746H158.82V15.2866H151.412V19.0946H160.628V20.3906H150.116ZM164.174 20.3906C163.822 20.3906 163.496 20.3053 163.198 20.1346C162.91 19.964 162.68 19.7346 162.51 19.4466C162.339 19.148 162.254 18.8226 162.254 18.4706V18.0226H163.549V18.4706C163.549 18.6413 163.608 18.7906 163.726 18.9186C163.854 19.036 164.003 19.0946 164.174 19.0946H171.854C172.024 19.0946 172.168 19.036 172.286 18.9186C172.414 18.7906 172.478 18.6413 172.478 18.4706V15.8946C172.478 15.724 172.414 15.58 172.286 15.4626C172.168 15.3453 172.024 15.2866 171.854 15.2866H164.174C163.822 15.2866 163.496 15.2013 163.198 15.0306C162.91 14.8493 162.68 14.6146 162.51 14.3266C162.339 14.0386 162.254 13.7186 162.254 13.3666V10.7906C162.254 10.4386 162.339 10.1186 162.51 9.83062C162.68 9.53196 162.91 9.29729 163.198 9.12662C163.496 8.95596 163.822 8.87062 164.174 8.87062H171.854C172.206 8.87062 172.526 8.95596 172.814 9.12662C173.112 9.29729 173.347 9.53196 173.518 9.83062C173.688 10.1186 173.774 10.4386 173.774 10.7906V11.2386H172.478V10.7906C172.478 10.62 172.414 10.476 172.286 10.3586C172.168 10.2306 172.024 10.1666 171.854 10.1666H164.174C164.003 10.1666 163.854 10.2306 163.726 10.3586C163.608 10.476 163.549 10.62 163.549 10.7906V13.3666C163.549 13.5373 163.608 13.6813 163.726 13.7986C163.854 13.916 164.003 13.9746 164.174 13.9746H171.854C172.206 13.9746 172.526 14.0653 172.814 14.2466C173.112 14.4173 173.347 14.6466 173.518 14.9346C173.688 15.2226 173.774 15.5426 173.774 15.8946V18.4706C173.774 18.8226 173.688 19.148 173.518 19.4466C173.347 19.7346 173.112 19.964 172.814 20.1346C172.526 20.3053 172.206 20.3906 171.854 20.3906H164.174ZM175.49 20.3906V8.88662H185.09C185.442 8.88662 185.762 8.97729 186.05 9.15862C186.348 9.32929 186.583 9.55862 186.754 9.84662C186.924 10.1346 187.01 10.4546 187.01 10.8066V14.1826C187.01 14.5346 186.924 14.8546 186.754 15.1426C186.583 15.4306 186.348 15.6653 186.05 15.8466C185.762 16.0173 185.442 16.1026 185.09 16.1026H176.786V20.3906H175.49ZM177.41 14.7906H185.09C185.26 14.7906 185.404 14.732 185.522 14.6146C185.65 14.4973 185.714 14.3533 185.714 14.1826V10.8066C185.714 10.636 185.65 10.492 185.522 10.3746C185.404 10.2466 185.26 10.1826 185.09 10.1826H177.41C177.239 10.1826 177.09 10.2466 176.962 10.3746C176.844 10.492 176.786 10.636 176.786 10.8066V14.1826C176.786 14.3533 176.844 14.4973 176.962 14.6146C177.09 14.732 177.239 14.7906 177.41 14.7906ZM190.034 20.3906C189.682 20.3906 189.357 20.3053 189.058 20.1346C188.77 19.964 188.541 19.7346 188.37 19.4466C188.199 19.148 188.114 18.8226 188.114 18.4706V10.7906C188.114 10.4386 188.199 10.1186 188.37 9.83062C188.541 9.53196 188.77 9.29729 189.058 9.12662C189.357 8.95596 189.682 8.87062 190.034 8.87062H197.714C198.066 8.87062 198.386 8.95596 198.674 9.12662C198.973 9.29729 199.207 9.53196 199.378 9.83062C199.549 10.1186 199.634 10.4386 199.634 10.7906V18.4706C199.634 18.8226 199.549 19.148 199.378 19.4466C199.207 19.7346 198.973 19.964 198.674 20.1346C198.386 20.3053 198.066 20.3906 197.714 20.3906H190.034ZM190.034 19.0946H197.714C197.885 19.0946 198.029 19.036 198.146 18.9186C198.274 18.7906 198.338 18.6413 198.338 18.4706V10.7906C198.338 10.62 198.274 10.476 198.146 10.3586C198.029 10.2306 197.885 10.1666 197.714 10.1666H190.034C189.863 10.1666 189.714 10.2306 189.586 10.3586C189.469 10.476 189.41 10.62 189.41 10.7906V18.4706C189.41 18.6413 189.469 18.7906 189.586 18.9186C189.714 19.036 189.863 19.0946 190.034 19.0946ZM211.124 20.3906L207.364 15.9106H209.06L212.836 20.3746V20.3906H211.124ZM201.396 20.3906V8.88662H210.996C211.348 8.88662 211.668 8.97729 211.956 9.15862C212.255 9.32929 212.489 9.55862 212.66 9.84662C212.831 10.1346 212.916 10.4546 212.916 10.8066V14.1826C212.916 14.5346 212.831 14.8546 212.66 15.1426C212.489 15.4306 212.255 15.6653 211.956 15.8466C211.668 16.0173 211.348 16.1026 210.996 16.1026H202.692V20.3906H201.396ZM203.316 14.7906H210.996C211.167 14.7906 211.311 14.732 211.428 14.6146C211.556 14.4973 211.62 14.3533 211.62 14.1826V10.8066C211.62 10.636 211.556 10.492 211.428 10.3746C211.311 10.2466 211.167 10.1826 210.996 10.1826H203.316C203.145 10.1826 202.996 10.2466 202.868 10.3746C202.751 10.492 202.692 10.636 202.692 10.8066V14.1826C202.692 14.3533 202.751 14.4973 202.868 14.6146C202.996 14.732 203.145 14.7906 203.316 14.7906ZM219.143 20.3906V10.1666H214.023V8.87062H225.543V10.1666H220.439V20.3906H219.143ZM228.58 20.3906C228.228 20.3906 227.902 20.3053 227.604 20.1346C227.316 19.964 227.086 19.7346 226.916 19.4466C226.745 19.148 226.66 18.8226 226.66 18.4706V18.0226H227.956V18.4706C227.956 18.6413 228.014 18.7906 228.132 18.9186C228.26 19.036 228.409 19.0946 228.58 19.0946H236.26C236.43 19.0946 236.574 19.036 236.692 18.9186C236.82 18.7906 236.884 18.6413 236.884 18.4706V15.8946C236.884 15.724 236.82 15.58 236.692 15.4626C236.574 15.3453 236.43 15.2866 236.26 15.2866H228.58C228.228 15.2866 227.902 15.2013 227.604 15.0306C227.316 14.8493 227.086 14.6146 226.916 14.3266C226.745 14.0386 226.66 13.7186 226.66 13.3666V10.7906C226.66 10.4386 226.745 10.1186 226.916 9.83062C227.086 9.53196 227.316 9.29729 227.604 9.12662C227.902 8.95596 228.228 8.87062 228.58 8.87062H236.26C236.612 8.87062 236.932 8.95596 237.22 9.12662C237.518 9.29729 237.753 9.53196 237.924 9.83062C238.094 10.1186 238.18 10.4386 238.18 10.7906V11.2386H236.884V10.7906C236.884 10.62 236.82 10.476 236.692 10.3586C236.574 10.2306 236.43 10.1666 236.26 10.1666H228.58C228.409 10.1666 228.26 10.2306 228.132 10.3586C228.014 10.476 227.956 10.62 227.956 10.7906V13.3666C227.956 13.5373 228.014 13.6813 228.132 13.7986C228.26 13.916 228.409 13.9746 228.58 13.9746H236.26C236.612 13.9746 236.932 14.0653 237.22 14.2466C237.518 14.4173 237.753 14.6466 237.924 14.9346C238.094 15.2226 238.18 15.5426 238.18 15.8946V18.4706C238.18 18.8226 238.094 19.148 237.924 19.4466C237.753 19.7346 237.518 19.964 237.22 20.1346C236.932 20.3053 236.612 20.3906 236.26 20.3906H228.58Z" fill="#57B8FF"/>
<path d="M3.648 106.391V60.2466H8.832V101.207H49.728V106.391H3.648ZM60.947 106.391C59.539 106.391 58.2377 106.049 57.043 105.367C55.891 104.641 54.9523 103.703 54.227 102.551C53.5443 101.356 53.203 100.055 53.203 98.6466V85.2066H85.715V77.0146C85.715 76.332 85.459 75.756 84.947 75.2866C84.4777 74.7746 83.9017 74.5186 83.219 74.5186H53.203V69.2706H83.219C84.6697 69.2706 85.971 69.6333 87.123 70.3586C88.3177 71.0413 89.2563 71.98 89.939 73.1746C90.6643 74.3266 91.027 75.6066 91.027 77.0146V106.391H60.947ZM60.947 101.143H85.715V90.4546H58.451V98.6466C58.451 99.3293 58.6857 99.9266 59.155 100.439C59.667 100.908 60.2643 101.143 60.947 101.143ZM105.449 106.391C103.998 106.391 102.675 106.049 101.481 105.367C100.329 104.641 99.4112 103.703 98.7285 102.551C98.0458 101.356 97.7045 100.055 97.7045 98.6466V57.1106H102.953V69.2706H119.017V74.5186H102.953V98.6466C102.953 99.3293 103.187 99.9266 103.657 100.439C104.169 100.908 104.766 101.143 105.449 101.143H119.017V106.391H105.449ZM131.571 106.391C130.163 106.391 128.861 106.049 127.667 105.367C126.515 104.641 125.576 103.703 124.851 102.551C124.168 101.356 123.827 100.055 123.827 98.6466V77.0146C123.827 75.6066 124.168 74.3266 124.851 73.1746C125.576 71.98 126.515 71.0413 127.667 70.3586C128.861 69.6333 130.163 69.2706 131.571 69.2706H153.843C155.293 69.2706 156.595 69.6333 157.747 70.3586C158.941 71.0413 159.88 71.98 160.562 73.1746C161.288 74.3266 161.651 75.6066 161.651 77.0146V90.4546H129.075V98.6466C129.075 99.3293 129.309 99.9266 129.779 100.439C130.291 100.908 130.888 101.143 131.571 101.143H161.651V106.391H131.571ZM129.075 85.2066H156.339V77.0146C156.339 76.332 156.083 75.756 155.571 75.2866C155.101 74.7746 154.525 74.5186 153.843 74.5186H131.571C130.888 74.5186 130.291 74.7746 129.779 75.2866C129.309 75.756 129.075 76.332 129.075 77.0146V85.2066ZM175.691 106.391C174.283 106.391 172.982 106.049 171.787 105.367C170.635 104.641 169.696 103.703 168.971 102.551C168.288 101.356 167.947 100.055 167.947 98.6466V98.1346H173.195V98.6466C173.195 99.3293 173.43 99.9266 173.899 100.439C174.411 100.908 175.008 101.143 175.691 101.143H197.963C198.646 101.143 199.222 100.908 199.691 100.439C200.203 99.9266 200.459 99.3293 200.459 98.6466V92.9506C200.459 92.268 200.203 91.692 199.691 91.2226C199.222 90.7106 198.646 90.4546 197.963 90.4546H175.691C174.283 90.4546 172.982 90.1133 171.787 89.4306C170.635 88.7053 169.696 87.7666 168.971 86.6146C168.288 85.42 167.947 84.1186 167.947 82.7106V77.0146C167.947 75.6066 168.288 74.3266 168.971 73.1746C169.696 71.98 170.635 71.0413 171.787 70.3586C172.982 69.6333 174.283 69.2706 175.691 69.2706H197.963C199.414 69.2706 200.715 69.6333 201.867 70.3586C203.062 71.0413 204 71.98 204.683 73.1746C205.408 74.3266 205.771 75.6066 205.771 77.0146V77.5266H200.459V77.0146C200.459 76.332 200.203 75.756 199.691 75.2866C199.222 74.7746 198.646 74.5186 197.963 74.5186H175.691C175.008 74.5186 174.411 74.7746 173.899 75.2866C173.43 75.756 173.195 76.332 173.195 77.0146V82.7106C173.195 83.3933 173.43 83.9906 173.899 84.5026C174.411 84.972 175.008 85.2066 175.691 85.2066H197.963C199.414 85.2066 200.715 85.5693 201.867 86.2946C203.062 86.9773 204 87.916 204.683 89.1106C205.408 90.2626 205.771 91.5426 205.771 92.9506V98.6466C205.771 100.055 205.408 101.356 204.683 102.551C204 103.703 203.062 104.641 201.867 105.367C200.715 106.049 199.414 106.391 197.963 106.391H175.691ZM219.886 106.391C218.435 106.391 217.113 106.049 215.918 105.367C214.766 104.641 213.849 103.703 213.166 102.551C212.483 101.356 212.142 100.055 212.142 98.6466V57.1106H217.39V69.2706H233.454V74.5186H217.39V98.6466C217.39 99.3293 217.625 99.9266 218.094 100.439C218.606 100.908 219.203 101.143 219.886 101.143H233.454V106.391H219.886ZM256.022 106.391V60.3106H263.126L296.918 100.503V60.3106H302.102V106.391H294.998L261.206 66.1986V106.391H256.022ZM316.696 106.391C315.288 106.391 313.986 106.049 312.792 105.367C311.64 104.641 310.701 103.703 309.976 102.551C309.293 101.356 308.952 100.055 308.952 98.6466V77.0146C308.952 75.6066 309.293 74.3266 309.976 73.1746C310.701 71.98 311.64 71.0413 312.792 70.3586C313.986 69.6333 315.288 69.2706 316.696 69.2706H338.968C340.418 69.2706 341.72 69.6333 342.872 70.3586C344.066 71.0413 345.005 71.98 345.688 73.1746C346.413 74.3266 346.776 75.6066 346.776 77.0146V90.4546H314.2V98.6466C314.2 99.3293 314.434 99.9266 314.904 100.439C315.416 100.908 316.013 101.143 316.696 101.143H346.776V106.391H316.696ZM314.2 85.2066H341.464V77.0146C341.464 76.332 341.208 75.756 340.696 75.2866C340.226 74.7746 339.65 74.5186 338.968 74.5186H316.696C316.013 74.5186 315.416 74.7746 314.904 75.2866C314.434 75.756 314.2 76.332 314.2 77.0146V85.2066ZM364.895 106.391L350.303 69.2706H355.935L367.199 96.9186L379.167 69.2706H386.079L398.815 96.8546L409.311 69.2706H415.007L400.991 106.391H396.447L382.623 75.7346L369.503 106.391H364.895ZM426.504 106.391C425.096 106.391 423.794 106.049 422.6 105.367C421.448 104.641 420.509 103.703 419.784 102.551C419.101 101.356 418.76 100.055 418.76 98.6466V98.1346H424.008V98.6466C424.008 99.3293 424.242 99.9266 424.712 100.439C425.224 100.908 425.821 101.143 426.504 101.143H448.776C449.458 101.143 450.034 100.908 450.504 100.439C451.016 99.9266 451.272 99.3293 451.272 98.6466V92.9506C451.272 92.268 451.016 91.692 450.504 91.2226C450.034 90.7106 449.458 90.4546 448.776 90.4546H426.504C425.096 90.4546 423.794 90.1133 422.6 89.4306C421.448 88.7053 420.509 87.7666 419.784 86.6146C419.101 85.42 418.76 84.1186 418.76 82.7106V77.0146C418.76 75.6066 419.101 74.3266 419.784 73.1746C420.509 71.98 421.448 71.0413 422.6 70.3586C423.794 69.6333 425.096 69.2706 426.504 69.2706H448.776C450.226 69.2706 451.528 69.6333 452.68 70.3586C453.874 71.0413 454.813 71.98 455.496 73.1746C456.221 74.3266 456.584 75.6066 456.584 77.0146V77.5266H451.272V77.0146C451.272 76.332 451.016 75.756 450.504 75.2866C450.034 74.7746 449.458 74.5186 448.776 74.5186H426.504C425.821 74.5186 425.224 74.7746 424.712 75.2866C424.242 75.756 424.008 76.332 424.008 77.0146V82.7106C424.008 83.3933 424.242 83.9906 424.712 84.5026C425.224 84.972 425.821 85.2066 426.504 85.2066H448.776C450.226 85.2066 451.528 85.5693 452.68 86.2946C453.874 86.9773 454.813 87.916 455.496 89.1106C456.221 90.2626 456.584 91.5426 456.584 92.9506V98.6466C456.584 100.055 456.221 101.356 455.496 102.551C454.813 103.703 453.874 104.641 452.68 105.367C451.528 106.049 450.226 106.391 448.776 106.391H426.504ZM488.136 106.391C486.728 106.391 485.427 106.049 484.232 105.367C483.08 104.641 482.141 103.703 481.416 102.551C480.733 101.356 480.392 100.055 480.392 98.6466V84.8866C480.392 83.948 480.968 83.0306 482.12 82.1346C483.272 81.196 484.808 80.7266 486.728 80.7266C484.296 78.892 483.08 76.844 483.08 74.5826V68.1826C483.08 66.732 483.421 65.4306 484.104 64.2786C484.829 63.084 485.768 62.1453 486.92 61.4626C488.115 60.7373 489.416 60.3746 490.824 60.3746H517.128C518.323 60.3746 519.453 60.6946 520.52 61.3346C521.587 61.932 522.504 62.7426 523.272 63.7666C524.083 64.748 524.637 65.7933 524.936 66.9026V70.4226H519.624V68.2466C519.624 67.564 519.368 66.988 518.856 66.5186C518.387 66.0066 517.811 65.7506 517.128 65.7506H490.824C490.141 65.7506 489.544 66.0066 489.032 66.5186C488.563 66.988 488.328 67.564 488.328 68.2466V77.1426L521.672 93.9746V85.0786H526.92V95.7026L535.496 100.759V105.367L526.728 100.439C526.045 102.188 525.021 103.617 523.656 104.727C522.291 105.836 520.797 106.391 519.176 106.391H488.136ZM488.136 101.143H519.176C519.603 101.143 520.051 100.929 520.52 100.503C521.032 100.076 521.437 99.5213 521.736 98.8386L489.096 82.3906H488.136C487.453 82.3906 486.856 82.6466 486.344 83.1586C485.875 83.628 485.64 84.204 485.64 84.8866V98.6466C485.64 99.3293 485.875 99.9266 486.344 100.439C486.856 100.908 487.453 101.143 488.136 101.143Z" fill="white"/>
<path d="M3.712 180.391V141.991C3.712 140.583 4.05333 139.303 4.736 138.151C5.41867 136.956 6.336 136.017 7.488 135.335C8.68267 134.652 9.984 134.311 11.392 134.311H42.112C43.52 134.311 44.8 134.652 45.952 135.335C47.1467 136.017 48.0853 136.956 48.768 138.151C49.4507 139.303 49.792 140.583 49.792 141.991V180.391H44.608V163.559H8.896V180.391H3.712ZM8.896 158.375H44.608V141.991C44.608 141.308 44.352 140.732 43.84 140.263C43.3707 139.751 42.7947 139.495 42.112 139.495H11.392C10.7093 139.495 10.112 139.751 9.6 140.263C9.13067 140.732 8.896 141.308 8.896 141.991V158.375ZM56.828 180.391V151.015C56.828 149.607 57.1693 148.327 57.852 147.175C58.5773 145.98 59.516 145.041 60.668 144.359C61.8627 143.633 63.164 143.271 64.572 143.271H85.436V148.519H64.572C63.8893 148.519 63.292 148.775 62.78 149.287C62.3107 149.756 62.076 150.332 62.076 151.015V180.391H56.828ZM97.386 180.391C95.9353 180.391 94.6127 180.049 93.418 179.367C92.266 178.641 91.3487 177.703 90.666 176.551C89.9833 175.356 89.642 174.055 89.642 172.647V131.111H94.89V143.271H110.954V148.519H94.89V172.647C94.89 173.329 95.1247 173.927 95.594 174.439C96.106 174.908 96.7033 175.143 97.386 175.143H110.954V180.391H97.386ZM116.141 180.391V143.271H121.389V180.391H116.141ZM116.141 136.359V131.111H121.389V136.359H116.141ZM136.196 180.391C134.788 180.391 133.486 180.049 132.292 179.367C131.14 178.641 130.201 177.703 129.476 176.551C128.793 175.356 128.452 174.055 128.452 172.647V151.015C128.452 149.607 128.793 148.327 129.476 147.175C130.201 145.98 131.14 145.041 132.292 144.359C133.486 143.633 134.788 143.271 136.196 143.271H166.148V148.519H136.196C135.513 148.519 134.916 148.775 134.404 149.287C133.934 149.756 133.7 150.332 133.7 151.015V172.647C133.7 173.329 133.934 173.927 134.404 174.439C134.916 174.908 135.513 175.143 136.196 175.143H166.276V180.391H136.196ZM180.76 180.391C179.352 180.391 178.05 180.049 176.856 179.367C175.704 178.641 174.765 177.703 174.04 176.551C173.357 175.356 173.016 174.055 173.016 172.647V131.111H178.264V172.647C178.264 173.329 178.498 173.927 178.968 174.439C179.48 174.908 180.077 175.143 180.76 175.143H187.032V180.391H180.76ZM199.071 180.391C197.663 180.391 196.361 180.049 195.167 179.367C194.015 178.641 193.076 177.703 192.351 176.551C191.668 175.356 191.327 174.055 191.327 172.647V151.015C191.327 149.607 191.668 148.327 192.351 147.175C193.076 145.98 194.015 145.041 195.167 144.359C196.361 143.633 197.663 143.271 199.071 143.271H221.343C222.793 143.271 224.095 143.633 225.247 144.359C226.441 145.041 227.38 145.98 228.062 147.175C228.788 148.327 229.151 149.607 229.151 151.015V164.455H196.575V172.647C196.575 173.329 196.809 173.927 197.279 174.439C197.791 174.908 198.388 175.143 199.071 175.143H229.151V180.391H199.071ZM196.575 159.207H223.839V151.015C223.839 150.332 223.583 149.756 223.071 149.287C222.601 148.775 222.025 148.519 221.343 148.519H199.071C198.388 148.519 197.791 148.775 197.279 149.287C196.809 149.756 196.575 150.332 196.575 151.015V159.207ZM243.191 180.391C241.783 180.391 240.482 180.049 239.287 179.367C238.135 178.641 237.196 177.703 236.471 176.551C235.788 175.356 235.447 174.055 235.447 172.647V172.135H240.695V172.647C240.695 173.329 240.93 173.927 241.399 174.439C241.911 174.908 242.508 175.143 243.191 175.143H265.463C266.146 175.143 266.722 174.908 267.191 174.439C267.703 173.927 267.959 173.329 267.959 172.647V166.951C267.959 166.268 267.703 165.692 267.191 165.223C266.722 164.711 266.146 164.455 265.463 164.455H243.191C241.783 164.455 240.482 164.113 239.287 163.431C238.135 162.705 237.196 161.767 236.471 160.615C235.788 159.42 235.447 158.119 235.447 156.711V151.015C235.447 149.607 235.788 148.327 236.471 147.175C237.196 145.98 238.135 145.041 239.287 144.359C240.482 143.633 241.783 143.271 243.191 143.271H265.463C266.914 143.271 268.215 143.633 269.367 144.359C270.562 145.041 271.5 145.98 272.183 147.175C272.908 148.327 273.271 149.607 273.271 151.015V151.527H267.959V151.015C267.959 150.332 267.703 149.756 267.191 149.287C266.722 148.775 266.146 148.519 265.463 148.519H243.191C242.508 148.519 241.911 148.775 241.399 149.287C240.93 149.756 240.695 150.332 240.695 151.015V156.711C240.695 157.393 240.93 157.991 241.399 158.503C241.911 158.972 242.508 159.207 243.191 159.207H265.463C266.914 159.207 268.215 159.569 269.367 160.295C270.562 160.977 271.5 161.916 272.183 163.111C272.908 164.263 273.271 165.543 273.271 166.951V172.647C273.271 174.055 272.908 175.356 272.183 176.551C271.5 177.703 270.562 178.641 269.367 179.367C268.215 180.049 266.914 180.391 265.463 180.391H243.191Z" fill="white"/>
<defs>
<linearGradient id="paint0_linear_1_353" x1="15.6944" y1="1.89062" x2="15.6944" y2="30.8906" gradientUnits="userSpaceOnUse">
<stop stop-color="#FF9159"/>
<stop offset="0.6875" stop-color="#FF7631"/>
<stop offset="1" stop-color="#FF6A1F"/>
</linearGradient>
</defs>
</svg>
