<svg width="660" height="70" viewBox="0 0 660 70" fill="none" xmlns="http://www.w3.org/2000/svg">
<path d="M251.136 42L243.63 29.04H245.34L251.982 40.578L258.606 29.04H260.316L252.828 42H251.136ZM261.989 42V31.56H263.465V42H261.989ZM261.989 29.616V28.14H263.465V29.616H261.989ZM267.893 42C267.497 42 267.131 41.904 266.795 41.712C266.471 41.508 266.207 41.244 266.003 40.92C265.811 40.584 265.715 40.218 265.715 39.822V33.738C265.715 33.342 265.811 32.982 266.003 32.658C266.207 32.322 266.471 32.058 266.795 31.866C267.131 31.662 267.497 31.56 267.893 31.56H274.157C274.565 31.56 274.931 31.662 275.255 31.866C275.591 32.058 275.855 32.322 276.047 32.658C276.251 32.982 276.353 33.342 276.353 33.738V37.518H267.191V39.822C267.191 40.014 267.257 40.182 267.389 40.326C267.533 40.458 267.701 40.524 267.893 40.524H276.353V42H267.893ZM267.191 36.042H274.859V33.738C274.859 33.546 274.787 33.384 274.643 33.252C274.511 33.108 274.349 33.036 274.157 33.036H267.893C267.701 33.036 267.533 33.108 267.389 33.252C267.257 33.384 267.191 33.546 267.191 33.738V36.042ZM281.449 42L277.345 31.56H278.929L282.097 39.336L285.463 31.56H287.407L290.989 39.318L293.941 31.56H295.543L291.601 42H290.323L286.435 33.378L282.745 42H281.449ZM303.998 42C303.602 42 303.236 41.904 302.9 41.712C302.576 41.508 302.312 41.244 302.108 40.92C301.916 40.584 301.82 40.218 301.82 39.822V33.738C301.82 33.342 301.916 32.982 302.108 32.658C302.312 32.322 302.576 32.058 302.9 31.866C303.236 31.662 303.602 31.56 303.998 31.56H310.262C310.67 31.56 311.036 31.662 311.36 31.866C311.696 32.058 311.96 32.322 312.152 32.658C312.356 32.982 312.458 33.342 312.458 33.738V39.822C312.458 40.218 312.356 40.584 312.152 40.92C311.96 41.244 311.696 41.508 311.36 41.712C311.036 41.904 310.67 42 310.262 42H303.998ZM303.998 40.524H310.262C310.454 40.524 310.616 40.458 310.748 40.326C310.892 40.182 310.964 40.014 310.964 39.822V33.738C310.964 33.546 310.892 33.384 310.748 33.252C310.616 33.108 310.454 33.036 310.262 33.036H303.998C303.806 33.036 303.638 33.108 303.494 33.252C303.362 33.384 303.296 33.546 303.296 33.738V39.822C303.296 40.014 303.362 40.182 303.494 40.326C303.638 40.458 303.806 40.524 303.998 40.524ZM316.075 42C315.679 42 315.313 41.904 314.977 41.712C314.653 41.508 314.389 41.244 314.185 40.92C313.993 40.584 313.897 40.218 313.897 39.822V31.56H315.373V39.822C315.373 40.014 315.439 40.182 315.571 40.326C315.715 40.458 315.883 40.524 316.075 40.524H322.339C322.531 40.524 322.699 40.458 322.843 40.326C322.987 40.182 323.059 40.014 323.059 39.822V31.56H324.535V39.822C324.535 40.218 324.433 40.584 324.229 40.92C324.037 41.244 323.773 41.508 323.437 41.712C323.113 41.904 322.747 42 322.339 42H316.075ZM326.395 42V33.738C326.395 33.342 326.491 32.982 326.683 32.658C326.887 32.322 327.151 32.058 327.475 31.866C327.811 31.662 328.177 31.56 328.573 31.56H334.441V33.036H328.573C328.381 33.036 328.213 33.108 328.069 33.252C327.937 33.384 327.871 33.546 327.871 33.738V42H326.395ZM342.706 42C342.298 42 341.926 41.904 341.59 41.712C341.266 41.508 341.008 41.244 340.816 40.92C340.624 40.584 340.528 40.218 340.528 39.822V28.14H342.004V31.56H346.522V33.036H342.004V39.822C342.004 40.014 342.07 40.182 342.202 40.326C342.346 40.458 342.514 40.524 342.706 40.524H346.522V42H342.706ZM350.053 42C349.657 42 349.291 41.904 348.955 41.712C348.631 41.508 348.367 41.244 348.163 40.92C347.971 40.584 347.875 40.218 347.875 39.822V33.738C347.875 33.342 347.971 32.982 348.163 32.658C348.367 32.322 348.631 32.058 348.955 31.866C349.291 31.662 349.657 31.56 350.053 31.56H356.317C356.725 31.56 357.091 31.662 357.415 31.866C357.751 32.058 358.015 32.322 358.207 32.658C358.411 32.982 358.513 33.342 358.513 33.738V37.518H349.351V39.822C349.351 40.014 349.417 40.182 349.549 40.326C349.693 40.458 349.861 40.524 350.053 40.524H358.513V42H350.053ZM349.351 36.042H357.019V33.738C357.019 33.546 356.947 33.384 356.803 33.252C356.671 33.108 356.509 33.036 356.317 33.036H350.053C349.861 33.036 349.693 33.108 349.549 33.252C349.417 33.384 349.351 33.546 349.351 33.738V36.042ZM362.534 42C362.138 42 361.772 41.904 361.436 41.712C361.112 41.508 360.848 41.244 360.644 40.92C360.452 40.584 360.356 40.218 360.356 39.822V36.042H369.5V33.738C369.5 33.546 369.428 33.384 369.284 33.252C369.152 33.108 368.99 33.036 368.798 33.036H360.356V31.56H368.798C369.206 31.56 369.572 31.662 369.896 31.866C370.232 32.058 370.496 32.322 370.688 32.658C370.892 32.982 370.994 33.342 370.994 33.738V42H362.534ZM362.534 40.524H369.5V37.518H361.832V39.822C361.832 40.014 361.898 40.182 362.03 40.326C362.174 40.458 362.342 40.524 362.534 40.524ZM372.538 42V31.56H386.326C386.734 31.56 387.1 31.662 387.424 31.866C387.76 32.058 388.024 32.322 388.216 32.658C388.408 32.982 388.504 33.342 388.504 33.738V42H387.046V33.738C387.046 33.546 386.974 33.384 386.83 33.252C386.686 33.108 386.518 33.036 386.326 33.036H381.988C381.796 33.036 381.628 33.108 381.484 33.252C381.352 33.384 381.286 33.546 381.286 33.738V42H379.792V33.738C379.792 33.546 379.72 33.384 379.576 33.252C379.444 33.108 379.282 33.036 379.09 33.036H374.734C374.542 33.036 374.374 33.108 374.23 33.252C374.098 33.384 374.032 33.546 374.032 33.738V42H372.538Z" fill="white"/>
<path d="M0 0H203V70H0V0Z" fill="#57B8FF"/>
<path d="M35.044 42V29.04H46.87V30.498H36.502V34.782H44.836V36.258H36.502V40.542H46.87V42H35.044ZM48.6093 42V41.982L52.9653 36.69L48.6093 31.578V31.56H50.5533L53.9373 35.52L57.3393 31.56H59.2653V31.578L54.9093 36.69L59.2833 41.982V42H57.3393L53.9373 37.824L50.5533 42H48.6093ZM61.2161 46.14V31.56H69.6761C70.0721 31.56 70.4321 31.662 70.7561 31.866C71.0921 32.058 71.3561 32.322 71.5481 32.658C71.7521 32.982 71.8541 33.342 71.8541 33.738V39.822C71.8541 40.218 71.7521 40.584 71.5481 40.92C71.3561 41.244 71.0921 41.508 70.7561 41.712C70.4321 41.904 70.0721 42 69.6761 42H62.6921V46.14H61.2161ZM63.4121 40.524H69.6761C69.8681 40.524 70.0301 40.458 70.1621 40.326C70.3061 40.182 70.3781 40.014 70.3781 39.822V33.738C70.3781 33.546 70.3061 33.384 70.1621 33.252C70.0301 33.108 69.8681 33.036 69.6761 33.036H63.4121C63.2201 33.036 63.0521 33.108 62.9081 33.252C62.7641 33.384 62.6921 33.546 62.6921 33.738V39.822C62.6921 40.014 62.7641 40.182 62.9081 40.326C63.0521 40.458 63.2201 40.524 63.4121 40.524ZM75.3113 42C74.9153 42 74.5493 41.904 74.2133 41.712C73.8893 41.508 73.6253 41.244 73.4213 40.92C73.2293 40.584 73.1333 40.218 73.1333 39.822V28.14H74.6093V39.822C74.6093 40.014 74.6753 40.182 74.8073 40.326C74.9513 40.458 75.1193 40.524 75.3113 40.524H77.0753V42H75.3113ZM80.5491 42C80.1531 42 79.7871 41.904 79.4511 41.712C79.1271 41.508 78.8631 41.244 78.6591 40.92C78.4671 40.584 78.3711 40.218 78.3711 39.822V33.738C78.3711 33.342 78.4671 32.982 78.6591 32.658C78.8631 32.322 79.1271 32.058 79.4511 31.866C79.7871 31.662 80.1531 31.56 80.5491 31.56H86.8131C87.2211 31.56 87.5871 31.662 87.9111 31.866C88.2471 32.058 88.5111 32.322 88.7031 32.658C88.9071 32.982 89.0091 33.342 89.0091 33.738V39.822C89.0091 40.218 88.9071 40.584 88.7031 40.92C88.5111 41.244 88.2471 41.508 87.9111 41.712C87.5871 41.904 87.2211 42 86.8131 42H80.5491ZM80.5491 40.524H86.8131C87.0051 40.524 87.1671 40.458 87.2991 40.326C87.4431 40.182 87.5151 40.014 87.5151 39.822V33.738C87.5151 33.546 87.4431 33.384 87.2991 33.252C87.1671 33.108 87.0051 33.036 86.8131 33.036H80.5491C80.3571 33.036 80.1891 33.108 80.0451 33.252C79.9131 33.384 79.8471 33.546 79.8471 33.738V39.822C79.8471 40.014 79.9131 40.182 80.0451 40.326C80.1891 40.458 80.3571 40.524 80.5491 40.524ZM90.6762 42V33.738C90.6762 33.342 90.7722 32.982 90.9642 32.658C91.1682 32.322 91.4322 32.058 91.7562 31.866C92.0922 31.662 92.4582 31.56 92.8542 31.56H98.7222V33.036H92.8542C92.6622 33.036 92.4942 33.108 92.3502 33.252C92.2182 33.384 92.1522 33.546 92.1522 33.738V42H90.6762ZM102.047 42C101.651 42 101.285 41.904 100.949 41.712C100.625 41.508 100.361 41.244 100.157 40.92C99.9652 40.584 99.8692 40.218 99.8692 39.822V33.738C99.8692 33.342 99.9652 32.982 100.157 32.658C100.361 32.322 100.625 32.058 100.949 31.866C101.285 31.662 101.651 31.56 102.047 31.56H108.311C108.719 31.56 109.085 31.662 109.409 31.866C109.745 32.058 110.009 32.322 110.201 32.658C110.405 32.982 110.507 33.342 110.507 33.738V37.518H101.345V39.822C101.345 40.014 101.411 40.182 101.543 40.326C101.687 40.458 101.855 40.524 102.047 40.524H110.507V42H102.047ZM101.345 36.042H109.013V33.738C109.013 33.546 108.941 33.384 108.797 33.252C108.665 33.108 108.503 33.036 108.311 33.036H102.047C101.855 33.036 101.687 33.108 101.543 33.252C101.411 33.384 101.345 33.546 101.345 33.738V36.042ZM117.326 42V29.04H119.324L124.706 35.448L130.088 29.04H132.086V42H130.628V30.696L124.706 37.734L118.784 30.696V42H117.326ZM136.114 42C135.718 42 135.352 41.904 135.016 41.712C134.692 41.508 134.428 41.244 134.224 40.92C134.032 40.584 133.936 40.218 133.936 39.822V33.738C133.936 33.342 134.032 32.982 134.224 32.658C134.428 32.322 134.692 32.058 135.016 31.866C135.352 31.662 135.718 31.56 136.114 31.56H142.378C142.786 31.56 143.152 31.662 143.476 31.866C143.812 32.058 144.076 32.322 144.268 32.658C144.472 32.982 144.574 33.342 144.574 33.738V39.822C144.574 40.218 144.472 40.584 144.268 40.92C144.076 41.244 143.812 41.508 143.476 41.712C143.152 41.904 142.786 42 142.378 42H136.114ZM136.114 40.524H142.378C142.57 40.524 142.732 40.458 142.864 40.326C143.008 40.182 143.08 40.014 143.08 39.822V33.738C143.08 33.546 143.008 33.384 142.864 33.252C142.732 33.108 142.57 33.036 142.378 33.036H136.114C135.922 33.036 135.754 33.108 135.61 33.252C135.478 33.384 135.412 33.546 135.412 33.738V39.822C135.412 40.014 135.478 40.182 135.61 40.326C135.754 40.458 135.922 40.524 136.114 40.524ZM146.241 42V33.738C146.241 33.342 146.337 32.982 146.529 32.658C146.733 32.322 146.997 32.058 147.321 31.866C147.657 31.662 148.023 31.56 148.419 31.56H154.287V33.036H148.419C148.227 33.036 148.059 33.108 147.915 33.252C147.783 33.384 147.717 33.546 147.717 33.738V42H146.241ZM157.612 42C157.216 42 156.85 41.904 156.514 41.712C156.19 41.508 155.926 41.244 155.722 40.92C155.53 40.584 155.434 40.218 155.434 39.822V33.738C155.434 33.342 155.53 32.982 155.722 32.658C155.926 32.322 156.19 32.058 156.514 31.866C156.85 31.662 157.216 31.56 157.612 31.56H163.876C164.284 31.56 164.65 31.662 164.974 31.866C165.31 32.058 165.574 32.322 165.766 32.658C165.97 32.982 166.072 33.342 166.072 33.738V37.518H156.91V39.822C156.91 40.014 156.976 40.182 157.108 40.326C157.252 40.458 157.42 40.524 157.612 40.524H166.072V42H157.612ZM156.91 36.042H164.578V33.738C164.578 33.546 164.506 33.384 164.362 33.252C164.23 33.108 164.068 33.036 163.876 33.036H157.612C157.42 33.036 157.252 33.108 157.108 33.252C156.976 33.384 156.91 33.546 156.91 33.738V36.042Z" fill="white"/>
</svg>
