<svg width="660" height="32" viewBox="0 0 660 32" fill="none" xmlns="http://www.w3.org/2000/svg">
<path d="M17.2468 7.25C18.0598 8.38815 18.4968 9.75188 18.4968 11.1506V12.5C18.9253 12.5 19.3414 12.3568 19.6791 12.0931C20.0168 11.8294 20.2567 11.4605 20.3606 11.0448L20.4968 10.5L20.8663 10.9434C21.4621 11.6583 21.7854 12.561 21.7789 13.4915C21.7725 14.4221 21.4367 15.3202 20.8311 16.0268C20.6041 16.2915 20.4855 16.6322 20.4988 16.9806C20.5122 17.3291 20.6565 17.6596 20.9031 17.9062C21.0407 18.0439 21.2059 18.151 21.3877 18.2205C21.5696 18.29 21.7641 18.3203 21.9584 18.3096C22.1528 18.2988 22.3427 18.2471 22.5158 18.158C22.6889 18.0688 22.8412 17.9441 22.9628 17.7921L23.9968 16.5L24.9968 19C25.4503 20.5115 25.486 22.1177 25.1002 23.6479C24.7144 25.1781 23.9215 26.5753 22.8056 27.6912L22.6795 27.8173C20.9619 29.535 18.6322 30.5 16.2031 30.5H15.1828C13.6011 30.5 12.0464 30.0904 10.67 29.3111C9.29359 28.5318 8.14247 27.4094 7.3287 26.0531C6.35428 24.4291 5.90726 22.5429 6.0492 20.6542C6.19114 18.7656 6.91505 16.9674 8.12127 15.5072L12.169 10.6073C12.5679 10.1244 12.8242 9.53994 12.9093 8.91945C12.9943 8.29897 12.9046 7.66707 12.6503 7.09475C12.3276 6.36877 12.2719 5.55208 12.4932 4.78904C12.7144 4.026 13.1983 3.36575 13.8593 2.925L15.9968 1.5V3.34944C15.9968 4.74812 16.4339 6.11185 17.2468 7.25Z" fill="url(#paint0_linear_1_94)"/>
<path d="M19.689 27.0882L19.6934 27.0838C20.4711 26.3001 21.026 25.3234 21.3009 24.2541C21.5758 23.1848 21.5608 22.0616 21.2575 21L19.8029 22.4546C19.6657 22.5919 19.5027 22.7008 19.3233 22.7751C19.144 22.8494 18.9517 22.8877 18.7576 22.8877C18.5635 22.8877 18.3712 22.8494 18.1919 22.7751C18.0125 22.7008 17.8495 22.5919 17.7123 22.4546C17.4514 22.1938 17.2974 21.8448 17.2807 21.4763C17.2639 21.1078 17.3855 20.7463 17.6217 20.4629C18.108 19.8794 18.4136 19.1667 18.5012 18.4122C18.5887 17.6577 18.4545 16.8941 18.1148 16.2147L15.7575 11.5L15.395 15.4875C15.3515 15.9657 15.2119 16.4303 14.9845 16.8532C14.7571 17.2762 14.4466 17.6488 14.0717 17.9489L12.0109 19.5976C11.4639 20.0352 11.0223 20.5902 10.7188 21.2216C10.4154 21.853 10.2578 22.5445 10.2578 23.2451V23.8125C10.2578 24.4973 10.4084 25.1736 10.6988 25.7938C10.9892 26.4139 11.4125 26.9626 11.9385 27.4009C12.7902 28.1106 13.8665 28.4943 14.975 28.4834L16.4199 28.4691C17.6488 28.4568 18.8234 27.9606 19.689 27.0882Z" fill="#FDD04A"/>
<path d="M7.5 12C7.36739 12 7.24021 11.9473 7.14645 11.8536C7.05268 11.7598 7 11.6326 7 11.5V10.5C7 10.3674 7.05268 10.2402 7.14645 10.1464C7.24021 10.0527 7.36739 10 7.5 10C7.63261 10 7.75979 10.0527 7.85355 10.1464C7.94732 10.2402 8 10.3674 8 10.5V11.5C8 11.6326 7.94732 11.7598 7.85355 11.8536C7.75979 11.9473 7.63261 12 7.5 12Z" fill="#FE691E"/>
<path d="M9 9.5C8.86739 9.5 8.74021 9.44732 8.64645 9.35355C8.55268 9.25979 8.5 9.13261 8.5 9V8C8.5 7.86739 8.55268 7.74021 8.64645 7.64645C8.74021 7.55268 8.86739 7.5 9 7.5C9.13261 7.5 9.25979 7.55268 9.35355 7.64645C9.44732 7.74021 9.5 7.86739 9.5 8V9C9.5 9.13261 9.44732 9.25979 9.35355 9.35355C9.25979 9.44732 9.13261 9.5 9 9.5Z" fill="#FF8D54"/>
<path d="M7 7.5C6.86739 7.5 6.74021 7.44732 6.64645 7.35355C6.55268 7.25979 6.5 7.13261 6.5 7V6C6.5 5.86739 6.55268 5.74021 6.64645 5.64645C6.74021 5.55268 6.86739 5.5 7 5.5C7.13261 5.5 7.25979 5.55268 7.35355 5.64645C7.44732 5.74021 7.5 5.86739 7.5 6V7C7.5 7.13261 7.44732 7.25979 7.35355 7.35355C7.25979 7.44732 7.13261 7.5 7 7.5Z" fill="#FFB895"/>
<path d="M24.5 13.5C24.3674 13.5 24.2402 13.4473 24.1464 13.3536C24.0527 13.2598 24 13.1326 24 13V12C24 11.8674 24.0527 11.7402 24.1464 11.6464C24.2402 11.5527 24.3674 11.5 24.5 11.5C24.6326 11.5 24.7598 11.5527 24.8536 11.6464C24.9473 11.7402 25 11.8674 25 12V13C25 13.1326 24.9473 13.2598 24.8536 13.3536C24.7598 13.4473 24.6326 13.5 24.5 13.5Z" fill="#FE691E"/>
<path d="M23 10C22.8674 10 22.7402 9.94732 22.6464 9.85355C22.5527 9.75979 22.5 9.63261 22.5 9.5V8.5C22.5 8.36739 22.5527 8.24021 22.6464 8.14645C22.7402 8.05268 22.8674 8 23 8C23.1326 8 23.2598 8.05268 23.3536 8.14645C23.4473 8.24021 23.5 8.36739 23.5 8.5V9.5C23.5 9.63261 23.4473 9.75979 23.3536 9.85355C23.2598 9.94732 23.1326 10 23 10Z" fill="#FF8D54"/>
<path d="M25 8.5C24.8674 8.5 24.7402 8.44732 24.6464 8.35355C24.5527 8.25979 24.5 8.13261 24.5 8V6.5C24.5 6.36739 24.5527 6.24021 24.6464 6.14645C24.7402 6.05268 24.8674 6 25 6C25.1326 6 25.2598 6.05268 25.3536 6.14645C25.4473 6.24021 25.5 6.36739 25.5 6.5V8C25.5 8.13261 25.4473 8.25979 25.3536 8.35355C25.2598 8.44732 25.1326 8.5 25 8.5Z" fill="#FFB895"/>
<path d="M40.928 20V8.48H51.44V9.776H42.224V13.584H49.632V14.896H42.224V20H40.928ZM54.3465 20C53.9945 20 53.6692 19.9147 53.3705 19.744C53.0825 19.5733 52.8532 19.344 52.6825 19.056C52.5118 18.7573 52.4265 18.432 52.4265 18.08V8.48H53.7225V18.08C53.7225 18.2507 53.7812 18.4 53.8985 18.528C54.0265 18.6453 54.1758 18.704 54.3465 18.704H62.0265C62.1972 18.704 62.3412 18.6453 62.4585 18.528C62.5865 18.4 62.6505 18.2507 62.6505 18.08V8.48H63.9465V18.08C63.9465 18.432 63.8612 18.7573 63.6905 19.056C63.5198 19.344 63.2852 19.5733 62.9865 19.744C62.6985 19.9147 62.3785 20 62.0265 20H54.3465ZM70.2525 20V9.776H65.1325V8.48H76.6525V9.776H71.5485V20H70.2525ZM79.7371 20C79.3851 20 79.0598 19.9147 78.7611 19.744C78.4731 19.5733 78.2438 19.344 78.0731 19.056C77.9025 18.7573 77.8171 18.432 77.8171 18.08V8.48H79.1131V18.08C79.1131 18.2507 79.1718 18.4 79.2891 18.528C79.4171 18.6453 79.5665 18.704 79.7371 18.704H87.4171C87.5878 18.704 87.7318 18.6453 87.8491 18.528C87.9771 18.4 88.0411 18.2507 88.0411 18.08V8.48H89.3371V18.08C89.3371 18.432 89.2518 18.7573 89.0811 19.056C88.9105 19.344 88.6758 19.5733 88.3771 19.744C88.0891 19.9147 87.7691 20 87.4171 20H79.7371ZM100.827 20L97.0671 15.52H98.7631L102.539 19.984V20H100.827ZM91.0991 20V8.496H100.699C101.051 8.496 101.371 8.58667 101.659 8.768C101.958 8.93867 102.192 9.168 102.363 9.456C102.534 9.744 102.619 10.064 102.619 10.416V13.792C102.619 14.144 102.534 14.464 102.363 14.752C102.192 15.04 101.958 15.2747 101.659 15.456C101.371 15.6267 101.051 15.712 100.699 15.712H92.3951V20H91.0991ZM93.0191 14.4H100.699C100.87 14.4 101.014 14.3413 101.131 14.224C101.259 14.1067 101.323 13.9627 101.323 13.792V10.416C101.323 10.2453 101.259 10.1013 101.131 9.984C101.014 9.856 100.87 9.792 100.699 9.792H93.0191C92.8485 9.792 92.6991 9.856 92.5711 9.984C92.4538 10.1013 92.3951 10.2453 92.3951 10.416V13.792C92.3951 13.9627 92.4538 14.1067 92.5711 14.224C92.6991 14.3413 92.8485 14.4 93.0191 14.4ZM104.334 20V8.48H114.846V9.776H105.63V13.584H113.038V14.896H105.63V18.704H114.846V20H104.334ZM122.8 20C122.448 20 122.122 19.9147 121.824 19.744C121.536 19.5733 121.306 19.344 121.136 19.056C120.965 18.7573 120.88 18.432 120.88 18.08V10.4C120.88 10.048 120.965 9.728 121.136 9.44C121.306 9.14133 121.536 8.90667 121.824 8.736C122.122 8.56533 122.448 8.48 122.8 8.48H130.48C130.832 8.48 131.152 8.56533 131.44 8.736C131.738 8.90667 131.973 9.14133 132.144 9.44C132.314 9.728 132.4 10.048 132.4 10.4V18.08C132.4 18.432 132.314 18.7573 132.144 19.056C131.973 19.344 131.738 19.5733 131.44 19.744C131.152 19.9147 130.832 20 130.48 20H122.8ZM122.8 18.704H130.48C130.65 18.704 130.794 18.6453 130.912 18.528C131.04 18.4 131.104 18.2507 131.104 18.08V10.4C131.104 10.2293 131.04 10.0853 130.912 9.968C130.794 9.84 130.65 9.776 130.48 9.776H122.8C122.629 9.776 122.48 9.84 122.352 9.968C122.234 10.0853 122.176 10.2293 122.176 10.4V18.08C122.176 18.2507 122.234 18.4 122.352 18.528C122.48 18.6453 122.629 18.704 122.8 18.704ZM134.194 20V8.48H144.706V9.776H135.49V13.584H142.898V14.896H135.49V20H134.194ZM150.116 20V8.48H160.628V9.776H151.412V13.584H158.82V14.896H151.412V18.704H160.628V20H150.116ZM164.174 20C163.822 20 163.496 19.9147 163.198 19.744C162.91 19.5733 162.68 19.344 162.51 19.056C162.339 18.7573 162.254 18.432 162.254 18.08V17.632H163.549V18.08C163.549 18.2507 163.608 18.4 163.726 18.528C163.854 18.6453 164.003 18.704 164.174 18.704H171.854C172.024 18.704 172.168 18.6453 172.286 18.528C172.414 18.4 172.478 18.2507 172.478 18.08V15.504C172.478 15.3333 172.414 15.1893 172.286 15.072C172.168 14.9547 172.024 14.896 171.854 14.896H164.174C163.822 14.896 163.496 14.8107 163.198 14.64C162.91 14.4587 162.68 14.224 162.51 13.936C162.339 13.648 162.254 13.328 162.254 12.976V10.4C162.254 10.048 162.339 9.728 162.51 9.44C162.68 9.14133 162.91 8.90667 163.198 8.736C163.496 8.56533 163.822 8.48 164.174 8.48H171.854C172.206 8.48 172.526 8.56533 172.814 8.736C173.112 8.90667 173.347 9.14133 173.518 9.44C173.688 9.728 173.774 10.048 173.774 10.4V10.848H172.478V10.4C172.478 10.2293 172.414 10.0853 172.286 9.968C172.168 9.84 172.024 9.776 171.854 9.776H164.174C164.003 9.776 163.854 9.84 163.726 9.968C163.608 10.0853 163.549 10.2293 163.549 10.4V12.976C163.549 13.1467 163.608 13.2907 163.726 13.408C163.854 13.5253 164.003 13.584 164.174 13.584H171.854C172.206 13.584 172.526 13.6747 172.814 13.856C173.112 14.0267 173.347 14.256 173.518 14.544C173.688 14.832 173.774 15.152 173.774 15.504V18.08C173.774 18.432 173.688 18.7573 173.518 19.056C173.347 19.344 173.112 19.5733 172.814 19.744C172.526 19.9147 172.206 20 171.854 20H164.174ZM175.49 20V8.496H185.09C185.442 8.496 185.762 8.58667 186.05 8.768C186.348 8.93867 186.583 9.168 186.754 9.456C186.924 9.744 187.01 10.064 187.01 10.416V13.792C187.01 14.144 186.924 14.464 186.754 14.752C186.583 15.04 186.348 15.2747 186.05 15.456C185.762 15.6267 185.442 15.712 185.09 15.712H176.786V20H175.49ZM177.41 14.4H185.09C185.26 14.4 185.404 14.3413 185.522 14.224C185.65 14.1067 185.714 13.9627 185.714 13.792V10.416C185.714 10.2453 185.65 10.1013 185.522 9.984C185.404 9.856 185.26 9.792 185.09 9.792H177.41C177.239 9.792 177.09 9.856 176.962 9.984C176.844 10.1013 176.786 10.2453 176.786 10.416V13.792C176.786 13.9627 176.844 14.1067 176.962 14.224C177.09 14.3413 177.239 14.4 177.41 14.4ZM190.034 20C189.682 20 189.357 19.9147 189.058 19.744C188.77 19.5733 188.541 19.344 188.37 19.056C188.199 18.7573 188.114 18.432 188.114 18.08V10.4C188.114 10.048 188.199 9.728 188.37 9.44C188.541 9.14133 188.77 8.90667 189.058 8.736C189.357 8.56533 189.682 8.48 190.034 8.48H197.714C198.066 8.48 198.386 8.56533 198.674 8.736C198.973 8.90667 199.207 9.14133 199.378 9.44C199.549 9.728 199.634 10.048 199.634 10.4V18.08C199.634 18.432 199.549 18.7573 199.378 19.056C199.207 19.344 198.973 19.5733 198.674 19.744C198.386 19.9147 198.066 20 197.714 20H190.034ZM190.034 18.704H197.714C197.885 18.704 198.029 18.6453 198.146 18.528C198.274 18.4 198.338 18.2507 198.338 18.08V10.4C198.338 10.2293 198.274 10.0853 198.146 9.968C198.029 9.84 197.885 9.776 197.714 9.776H190.034C189.863 9.776 189.714 9.84 189.586 9.968C189.469 10.0853 189.41 10.2293 189.41 10.4V18.08C189.41 18.2507 189.469 18.4 189.586 18.528C189.714 18.6453 189.863 18.704 190.034 18.704ZM211.124 20L207.364 15.52H209.06L212.836 19.984V20H211.124ZM201.396 20V8.496H210.996C211.348 8.496 211.668 8.58667 211.956 8.768C212.255 8.93867 212.489 9.168 212.66 9.456C212.831 9.744 212.916 10.064 212.916 10.416V13.792C212.916 14.144 212.831 14.464 212.66 14.752C212.489 15.04 212.255 15.2747 211.956 15.456C211.668 15.6267 211.348 15.712 210.996 15.712H202.692V20H201.396ZM203.316 14.4H210.996C211.167 14.4 211.311 14.3413 211.428 14.224C211.556 14.1067 211.62 13.9627 211.62 13.792V10.416C211.62 10.2453 211.556 10.1013 211.428 9.984C211.311 9.856 211.167 9.792 210.996 9.792H203.316C203.145 9.792 202.996 9.856 202.868 9.984C202.751 10.1013 202.692 10.2453 202.692 10.416V13.792C202.692 13.9627 202.751 14.1067 202.868 14.224C202.996 14.3413 203.145 14.4 203.316 14.4ZM219.143 20V9.776H214.023V8.48H225.543V9.776H220.439V20H219.143ZM228.58 20C228.228 20 227.902 19.9147 227.604 19.744C227.316 19.5733 227.086 19.344 226.916 19.056C226.745 18.7573 226.66 18.432 226.66 18.08V17.632H227.956V18.08C227.956 18.2507 228.014 18.4 228.132 18.528C228.26 18.6453 228.409 18.704 228.58 18.704H236.26C236.43 18.704 236.574 18.6453 236.692 18.528C236.82 18.4 236.884 18.2507 236.884 18.08V15.504C236.884 15.3333 236.82 15.1893 236.692 15.072C236.574 14.9547 236.43 14.896 236.26 14.896H228.58C228.228 14.896 227.902 14.8107 227.604 14.64C227.316 14.4587 227.086 14.224 226.916 13.936C226.745 13.648 226.66 13.328 226.66 12.976V10.4C226.66 10.048 226.745 9.728 226.916 9.44C227.086 9.14133 227.316 8.90667 227.604 8.736C227.902 8.56533 228.228 8.48 228.58 8.48H236.26C236.612 8.48 236.932 8.56533 237.22 8.736C237.518 8.90667 237.753 9.14133 237.924 9.44C238.094 9.728 238.18 10.048 238.18 10.4V10.848H236.884V10.4C236.884 10.2293 236.82 10.0853 236.692 9.968C236.574 9.84 236.43 9.776 236.26 9.776H228.58C228.409 9.776 228.26 9.84 228.132 9.968C228.014 10.0853 227.956 10.2293 227.956 10.4V12.976C227.956 13.1467 228.014 13.2907 228.132 13.408C228.26 13.5253 228.409 13.584 228.58 13.584H236.26C236.612 13.584 236.932 13.6747 237.22 13.856C237.518 14.0267 237.753 14.256 237.924 14.544C238.094 14.832 238.18 15.152 238.18 15.504V18.08C238.18 18.432 238.094 18.7573 237.924 19.056C237.753 19.344 237.518 19.5733 237.22 19.744C236.932 19.9147 236.612 20 236.26 20H228.58Z" fill="#57B8FF"/>
<defs>
<linearGradient id="paint0_linear_1_94" x1="15.6944" y1="1.5" x2="15.6944" y2="30.5" gradientUnits="userSpaceOnUse">
<stop stop-color="#FF9159"/>
<stop offset="0.6875" stop-color="#FF7631"/>
<stop offset="1" stop-color="#FF6A1F"/>
</linearGradient>
</defs>
</svg>
