<svg width="590" height="47" viewBox="0 0 590 47" fill="none" xmlns="http://www.w3.org/2000/svg">
<path d="M1.026 14V1.022H2.484V12.542H13.986V14H1.026ZM17.1233 14C16.7273 14 16.3613 13.904 16.0253 13.712C15.7013 13.508 15.4373 13.244 15.2333 12.92C15.0413 12.584 14.9453 12.218 14.9453 11.822V5.738C14.9453 5.342 15.0413 4.982 15.2333 4.658C15.4373 4.322 15.7013 4.058 16.0253 3.866C16.3613 3.662 16.7273 3.56 17.1233 3.56H23.3873C23.7953 3.56 24.1613 3.662 24.4853 3.866C24.8213 4.058 25.0853 4.322 25.2773 4.658C25.4813 4.982 25.5833 5.342 25.5833 5.738V11.822C25.5833 12.218 25.4813 12.584 25.2773 12.92C25.0853 13.244 24.8213 13.508 24.4853 13.712C24.1613 13.904 23.7953 14 23.3873 14H17.1233ZM17.1233 12.524H23.3873C23.5793 12.524 23.7413 12.458 23.8733 12.326C24.0173 12.182 24.0893 12.014 24.0893 11.822V5.738C24.0893 5.546 24.0173 5.384 23.8733 5.252C23.7413 5.108 23.5793 5.036 23.3873 5.036H17.1233C16.9313 5.036 16.7633 5.108 16.6193 5.252C16.4873 5.384 16.4213 5.546 16.4213 5.738V11.822C16.4213 12.014 16.4873 12.182 16.6193 12.326C16.7633 12.458 16.9313 12.524 17.1233 12.524ZM27.2505 14V5.738C27.2505 5.342 27.3465 4.982 27.5385 4.658C27.7425 4.322 28.0065 4.058 28.3305 3.866C28.6665 3.662 29.0325 3.56 29.4285 3.56H35.2965V5.036H29.4285C29.2365 5.036 29.0685 5.108 28.9245 5.252C28.7925 5.384 28.7265 5.546 28.7265 5.738V14H27.2505ZM38.6214 14C38.2254 14 37.8594 13.904 37.5234 13.712C37.1994 13.508 36.9354 13.244 36.7314 12.92C36.5394 12.584 36.4434 12.218 36.4434 11.822V5.738C36.4434 5.342 36.5394 4.982 36.7314 4.658C36.9354 4.322 37.1994 4.058 37.5234 3.866C37.8594 3.662 38.2254 3.56 38.6214 3.56H44.8854C45.2934 3.56 45.6594 3.662 45.9834 3.866C46.3194 4.058 46.5834 4.322 46.7754 4.658C46.9794 4.982 47.0814 5.342 47.0814 5.738V9.518H37.9194V11.822C37.9194 12.014 37.9854 12.182 38.1174 12.326C38.2614 12.458 38.4294 12.524 38.6214 12.524H47.0814V14H38.6214ZM37.9194 8.042H45.5874V5.738C45.5874 5.546 45.5154 5.384 45.3714 5.252C45.2394 5.108 45.0774 5.036 44.8854 5.036H38.6214C38.4294 5.036 38.2614 5.108 38.1174 5.252C37.9854 5.384 37.9194 5.546 37.9194 5.738V8.042ZM48.9603 14V3.56H62.7483C63.1563 3.56 63.5223 3.662 63.8463 3.866C64.1823 4.058 64.4463 4.322 64.6383 4.658C64.8303 4.982 64.9263 5.342 64.9263 5.738V14H63.4683V5.738C63.4683 5.546 63.3963 5.384 63.2523 5.252C63.1083 5.108 62.9403 5.036 62.7483 5.036H58.4103C58.2183 5.036 58.0503 5.108 57.9063 5.252C57.7743 5.384 57.7083 5.546 57.7083 5.738V14H56.2143V5.738C56.2143 5.546 56.1423 5.384 55.9983 5.252C55.8663 5.108 55.7043 5.036 55.5123 5.036H51.1563C50.9643 5.036 50.7963 5.108 50.6523 5.252C50.5203 5.384 50.4543 5.546 50.4543 5.738V14H48.9603ZM71.4243 14V3.56H72.9003V14H71.4243ZM71.4243 1.616V0.139999H72.9003V1.616H71.4243ZM74.7474 18.14V3.56H83.2074C83.6034 3.56 83.9634 3.662 84.2874 3.866C84.6234 4.058 84.8874 4.322 85.0794 4.658C85.2834 4.982 85.3854 5.342 85.3854 5.738V11.822C85.3854 12.218 85.2834 12.584 85.0794 12.92C84.8874 13.244 84.6234 13.508 84.2874 13.712C83.9634 13.904 83.6034 14 83.2074 14H76.2234V18.14H74.7474ZM76.9434 12.524H83.2074C83.3994 12.524 83.5614 12.458 83.6934 12.326C83.8374 12.182 83.9094 12.014 83.9094 11.822V5.738C83.9094 5.546 83.8374 5.384 83.6934 5.252C83.5614 5.108 83.3994 5.036 83.2074 5.036H76.9434C76.7514 5.036 76.5834 5.108 76.4394 5.252C76.2954 5.384 76.2234 5.546 76.2234 5.738V11.822C76.2234 12.014 76.2954 12.182 76.4394 12.326C76.5834 12.458 76.7514 12.524 76.9434 12.524ZM88.9463 14C88.5503 14 88.1843 13.904 87.8483 13.712C87.5243 13.508 87.2603 13.244 87.0563 12.92C86.8643 12.584 86.7683 12.218 86.7683 11.822V11.678H88.2443V11.822C88.2443 12.014 88.3103 12.182 88.4423 12.326C88.5863 12.458 88.7543 12.524 88.9463 12.524H95.2103C95.4023 12.524 95.5643 12.458 95.6963 12.326C95.8403 12.182 95.9123 12.014 95.9123 11.822V10.22C95.9123 10.028 95.8403 9.866 95.6963 9.734C95.5643 9.59 95.4023 9.518 95.2103 9.518H88.9463C88.5503 9.518 88.1843 9.422 87.8483 9.23C87.5243 9.026 87.2603 8.762 87.0563 8.438C86.8643 8.102 86.7683 7.736 86.7683 7.34V5.738C86.7683 5.342 86.8643 4.982 87.0563 4.658C87.2603 4.322 87.5243 4.058 87.8483 3.866C88.1843 3.662 88.5503 3.56 88.9463 3.56H95.2103C95.6183 3.56 95.9843 3.662 96.3083 3.866C96.6443 4.058 96.9083 4.322 97.1003 4.658C97.3043 4.982 97.4063 5.342 97.4063 5.738V5.882H95.9123V5.738C95.9123 5.546 95.8403 5.384 95.6963 5.252C95.5643 5.108 95.4023 5.036 95.2103 5.036H88.9463C88.7543 5.036 88.5863 5.108 88.4423 5.252C88.3103 5.384 88.2443 5.546 88.2443 5.738V7.34C88.2443 7.532 88.3103 7.7 88.4423 7.844C88.5863 7.976 88.7543 8.042 88.9463 8.042H95.2103C95.6183 8.042 95.9843 8.144 96.3083 8.348C96.6443 8.54 96.9083 8.804 97.1003 9.14C97.3043 9.464 97.4063 9.824 97.4063 10.22V11.822C97.4063 12.218 97.3043 12.584 97.1003 12.92C96.9083 13.244 96.6443 13.508 96.3083 13.712C95.9843 13.904 95.6183 14 95.2103 14H88.9463ZM101.025 14C100.629 14 100.263 13.904 99.9266 13.712C99.6026 13.508 99.3386 13.244 99.1346 12.92C98.9426 12.584 98.8466 12.218 98.8466 11.822V3.56H100.323V11.822C100.323 12.014 100.389 12.182 100.521 12.326C100.665 12.458 100.833 12.524 101.025 12.524H107.289C107.481 12.524 107.649 12.458 107.793 12.326C107.937 12.182 108.009 12.014 108.009 11.822V3.56H109.485V11.822C109.485 12.218 109.383 12.584 109.179 12.92C108.987 13.244 108.723 13.508 108.387 13.712C108.063 13.904 107.697 14 107.289 14H101.025ZM111.029 14V3.56H124.817C125.225 3.56 125.591 3.662 125.915 3.866C126.251 4.058 126.515 4.322 126.707 4.658C126.899 4.982 126.995 5.342 126.995 5.738V14H125.537V5.738C125.537 5.546 125.465 5.384 125.321 5.252C125.177 5.108 125.009 5.036 124.817 5.036H120.479C120.287 5.036 120.119 5.108 119.975 5.252C119.843 5.384 119.777 5.546 119.777 5.738V14H118.283V5.738C118.283 5.546 118.211 5.384 118.067 5.252C117.935 5.108 117.773 5.036 117.581 5.036H113.225C113.033 5.036 112.865 5.108 112.721 5.252C112.589 5.384 112.523 5.546 112.523 5.738V14H111.029ZM135.167 14C134.759 14 134.387 13.904 134.051 13.712C133.727 13.508 133.463 13.244 133.259 12.92C133.067 12.584 132.971 12.218 132.971 11.822V5.738C132.971 5.342 133.067 4.982 133.259 4.658C133.463 4.322 133.727 4.058 134.051 3.866C134.387 3.662 134.759 3.56 135.167 3.56H142.133V0.139999H143.609V14H135.167ZM135.167 12.524H141.431C141.623 12.524 141.785 12.458 141.917 12.326C142.061 12.182 142.133 12.014 142.133 11.822V5.738C142.133 5.546 142.061 5.384 141.917 5.252C141.785 5.108 141.623 5.036 141.431 5.036H135.167C134.975 5.036 134.807 5.108 134.663 5.252C134.531 5.384 134.465 5.546 134.465 5.738V11.822C134.465 12.014 134.531 12.182 134.663 12.326C134.807 12.458 134.975 12.524 135.167 12.524ZM147.254 14C146.858 14 146.492 13.904 146.156 13.712C145.832 13.508 145.568 13.244 145.364 12.92C145.172 12.584 145.076 12.218 145.076 11.822V5.738C145.076 5.342 145.172 4.982 145.364 4.658C145.568 4.322 145.832 4.058 146.156 3.866C146.492 3.662 146.858 3.56 147.254 3.56H153.518C153.926 3.56 154.292 3.662 154.616 3.866C154.952 4.058 155.216 4.322 155.408 4.658C155.612 4.982 155.714 5.342 155.714 5.738V11.822C155.714 12.218 155.612 12.584 155.408 12.92C155.216 13.244 154.952 13.508 154.616 13.712C154.292 13.904 153.926 14 153.518 14H147.254ZM147.254 12.524H153.518C153.71 12.524 153.872 12.458 154.004 12.326C154.148 12.182 154.22 12.014 154.22 11.822V5.738C154.22 5.546 154.148 5.384 154.004 5.252C153.872 5.108 153.71 5.036 153.518 5.036H147.254C147.062 5.036 146.894 5.108 146.75 5.252C146.618 5.384 146.552 5.546 146.552 5.738V11.822C146.552 12.014 146.618 12.182 146.75 12.326C146.894 12.458 147.062 12.524 147.254 12.524ZM159.384 14C158.988 14 158.622 13.904 158.286 13.712C157.962 13.508 157.698 13.244 157.494 12.92C157.302 12.584 157.206 12.218 157.206 11.822V0.139999H158.682V11.822C158.682 12.014 158.748 12.182 158.88 12.326C159.024 12.458 159.192 12.524 159.384 12.524H161.148V14H159.384ZM164.621 14C164.225 14 163.859 13.904 163.523 13.712C163.199 13.508 162.935 13.244 162.731 12.92C162.539 12.584 162.443 12.218 162.443 11.822V5.738C162.443 5.342 162.539 4.982 162.731 4.658C162.935 4.322 163.199 4.058 163.523 3.866C163.859 3.662 164.225 3.56 164.621 3.56H170.885C171.293 3.56 171.659 3.662 171.983 3.866C172.319 4.058 172.583 4.322 172.775 4.658C172.979 4.982 173.081 5.342 173.081 5.738V11.822C173.081 12.218 172.979 12.584 172.775 12.92C172.583 13.244 172.319 13.508 171.983 13.712C171.659 13.904 171.293 14 170.885 14H164.621ZM164.621 12.524H170.885C171.077 12.524 171.239 12.458 171.371 12.326C171.515 12.182 171.587 12.014 171.587 11.822V5.738C171.587 5.546 171.515 5.384 171.371 5.252C171.239 5.108 171.077 5.036 170.885 5.036H164.621C164.429 5.036 164.261 5.108 164.117 5.252C163.985 5.384 163.919 5.546 163.919 5.738V11.822C163.919 12.014 163.985 12.182 164.117 12.326C164.261 12.458 164.429 12.524 164.621 12.524ZM174.749 14V5.738C174.749 5.342 174.845 4.982 175.037 4.658C175.241 4.322 175.505 4.058 175.829 3.866C176.165 3.662 176.531 3.56 176.927 3.56H182.795V5.036H176.927C176.735 5.036 176.567 5.108 176.423 5.252C176.291 5.384 176.225 5.546 176.225 5.738V14H174.749ZM190.97 14C190.574 14 190.208 13.904 189.872 13.712C189.548 13.508 189.284 13.244 189.08 12.92C188.888 12.584 188.792 12.218 188.792 11.822V11.678H190.268V11.822C190.268 12.014 190.334 12.182 190.466 12.326C190.61 12.458 190.778 12.524 190.97 12.524H197.234C197.426 12.524 197.588 12.458 197.72 12.326C197.864 12.182 197.936 12.014 197.936 11.822V10.22C197.936 10.028 197.864 9.866 197.72 9.734C197.588 9.59 197.426 9.518 197.234 9.518H190.97C190.574 9.518 190.208 9.422 189.872 9.23C189.548 9.026 189.284 8.762 189.08 8.438C188.888 8.102 188.792 7.736 188.792 7.34V5.738C188.792 5.342 188.888 4.982 189.08 4.658C189.284 4.322 189.548 4.058 189.872 3.866C190.208 3.662 190.574 3.56 190.97 3.56H197.234C197.642 3.56 198.008 3.662 198.332 3.866C198.668 4.058 198.932 4.322 199.124 4.658C199.328 4.982 199.43 5.342 199.43 5.738V5.882H197.936V5.738C197.936 5.546 197.864 5.384 197.72 5.252C197.588 5.108 197.426 5.036 197.234 5.036H190.97C190.778 5.036 190.61 5.108 190.466 5.252C190.334 5.384 190.268 5.546 190.268 5.738V7.34C190.268 7.532 190.334 7.7 190.466 7.844C190.61 7.976 190.778 8.042 190.97 8.042H197.234C197.642 8.042 198.008 8.144 198.332 8.348C198.668 8.54 198.932 8.804 199.124 9.14C199.328 9.464 199.43 9.824 199.43 10.22V11.822C199.43 12.218 199.328 12.584 199.124 12.92C198.932 13.244 198.668 13.508 198.332 13.712C198.008 13.904 197.642 14 197.234 14H190.97ZM201.204 14V3.56H202.68V14H201.204ZM201.204 1.616V0.139999H202.68V1.616H201.204ZM207.144 14C206.736 14 206.364 13.904 206.028 13.712C205.704 13.508 205.446 13.244 205.254 12.92C205.062 12.584 204.966 12.218 204.966 11.822V0.139999H206.442V3.56H210.96V5.036H206.442V11.822C206.442 12.014 206.508 12.182 206.64 12.326C206.784 12.458 206.952 12.524 207.144 12.524H210.96V14H207.144ZM219.413 14C219.017 14 218.651 13.904 218.315 13.712C217.991 13.508 217.727 13.244 217.523 12.92C217.331 12.584 217.235 12.218 217.235 11.822V8.042H226.379V5.738C226.379 5.546 226.307 5.384 226.163 5.252C226.031 5.108 225.869 5.036 225.677 5.036H217.235V3.56H225.677C226.085 3.56 226.451 3.662 226.775 3.866C227.111 4.058 227.375 4.322 227.567 4.658C227.771 4.982 227.873 5.342 227.873 5.738V14H219.413ZM219.413 12.524H226.379V9.518H218.711V11.822C218.711 12.014 218.777 12.182 218.909 12.326C219.053 12.458 219.221 12.524 219.413 12.524ZM229.417 14V3.56H243.205C243.613 3.56 243.979 3.662 244.303 3.866C244.639 4.058 244.903 4.322 245.095 4.658C245.287 4.982 245.383 5.342 245.383 5.738V14H243.925V5.738C243.925 5.546 243.853 5.384 243.709 5.252C243.565 5.108 243.397 5.036 243.205 5.036H238.867C238.675 5.036 238.507 5.108 238.363 5.252C238.231 5.384 238.165 5.546 238.165 5.738V14H236.671V5.738C236.671 5.546 236.599 5.384 236.455 5.252C236.323 5.108 236.161 5.036 235.969 5.036H231.613C231.421 5.036 231.253 5.108 231.109 5.252C230.977 5.384 230.911 5.546 230.911 5.738V14H229.417ZM249.137 14C248.741 14 248.375 13.904 248.039 13.712C247.715 13.508 247.451 13.244 247.247 12.92C247.055 12.584 246.959 12.218 246.959 11.822V5.738C246.959 5.342 247.055 4.982 247.247 4.658C247.451 4.322 247.715 4.058 248.039 3.866C248.375 3.662 248.741 3.56 249.137 3.56H255.401C255.809 3.56 256.175 3.662 256.499 3.866C256.835 4.058 257.099 4.322 257.291 4.658C257.495 4.982 257.597 5.342 257.597 5.738V9.518H248.435V11.822C248.435 12.014 248.501 12.182 248.633 12.326C248.777 12.458 248.945 12.524 249.137 12.524H257.597V14H249.137ZM248.435 8.042H256.103V5.738C256.103 5.546 256.031 5.384 255.887 5.252C255.755 5.108 255.593 5.036 255.401 5.036H249.137C248.945 5.036 248.777 5.108 248.633 5.252C248.501 5.384 248.435 5.546 248.435 5.738V8.042ZM261.636 14C261.228 14 260.856 13.904 260.52 13.712C260.196 13.508 259.938 13.244 259.746 12.92C259.554 12.584 259.458 12.218 259.458 11.822V0.139999H260.934V3.56H265.452V5.036H260.934V11.822C260.934 12.014 261 12.182 261.132 12.326C261.276 12.458 261.444 12.524 261.636 12.524H265.452V14H261.636ZM266.859 16.358V12.524H268.335V14.288C268.335 14.612 268.269 14.912 268.137 15.188C268.017 15.464 267.843 15.704 267.615 15.908C267.399 16.112 267.147 16.262 266.859 16.358ZM277.367 14C276.971 14 276.605 13.904 276.269 13.712C275.945 13.508 275.681 13.244 275.477 12.92C275.285 12.584 275.189 12.218 275.189 11.822V5.738C275.189 5.342 275.285 4.982 275.477 4.658C275.681 4.322 275.945 4.058 276.269 3.866C276.605 3.662 276.971 3.56 277.367 3.56H285.791V5.036H277.367C277.175 5.036 277.007 5.108 276.863 5.252C276.731 5.384 276.665 5.546 276.665 5.738V11.822C276.665 12.014 276.731 12.182 276.863 12.326C277.007 12.458 277.175 12.524 277.367 12.524H285.827V14H277.367ZM289.883 14C289.487 14 289.121 13.904 288.785 13.712C288.461 13.508 288.197 13.244 287.993 12.92C287.801 12.584 287.705 12.218 287.705 11.822V5.738C287.705 5.342 287.801 4.982 287.993 4.658C288.197 4.322 288.461 4.058 288.785 3.866C289.121 3.662 289.487 3.56 289.883 3.56H296.147C296.555 3.56 296.921 3.662 297.245 3.866C297.581 4.058 297.845 4.322 298.037 4.658C298.241 4.982 298.343 5.342 298.343 5.738V11.822C298.343 12.218 298.241 12.584 298.037 12.92C297.845 13.244 297.581 13.508 297.245 13.712C296.921 13.904 296.555 14 296.147 14H289.883ZM289.883 12.524H296.147C296.339 12.524 296.501 12.458 296.633 12.326C296.777 12.182 296.849 12.014 296.849 11.822V5.738C296.849 5.546 296.777 5.384 296.633 5.252C296.501 5.108 296.339 5.036 296.147 5.036H289.883C289.691 5.036 289.523 5.108 289.379 5.252C289.247 5.384 289.181 5.546 289.181 5.738V11.822C289.181 12.014 289.247 12.182 289.379 12.326C289.523 12.458 289.691 12.524 289.883 12.524ZM299.958 14V3.56H308.418C308.814 3.56 309.174 3.662 309.498 3.866C309.834 4.058 310.098 4.322 310.29 4.658C310.494 4.982 310.596 5.342 310.596 5.738V14H309.12V5.738C309.12 5.546 309.048 5.384 308.904 5.252C308.772 5.108 308.61 5.036 308.418 5.036H302.154C301.962 5.036 301.794 5.108 301.65 5.252C301.506 5.384 301.434 5.546 301.434 5.738V14H299.958ZM314.562 14C314.166 14 313.8 13.904 313.464 13.712C313.14 13.508 312.876 13.244 312.672 12.92C312.48 12.584 312.384 12.218 312.384 11.822V11.678H313.86V11.822C313.86 12.014 313.926 12.182 314.058 12.326C314.202 12.458 314.37 12.524 314.562 12.524H320.826C321.018 12.524 321.18 12.458 321.312 12.326C321.456 12.182 321.528 12.014 321.528 11.822V10.22C321.528 10.028 321.456 9.866 321.312 9.734C321.18 9.59 321.018 9.518 320.826 9.518H314.562C314.166 9.518 313.8 9.422 313.464 9.23C313.14 9.026 312.876 8.762 312.672 8.438C312.48 8.102 312.384 7.736 312.384 7.34V5.738C312.384 5.342 312.48 4.982 312.672 4.658C312.876 4.322 313.14 4.058 313.464 3.866C313.8 3.662 314.166 3.56 314.562 3.56H320.826C321.234 3.56 321.6 3.662 321.924 3.866C322.26 4.058 322.524 4.322 322.716 4.658C322.92 4.982 323.022 5.342 323.022 5.738V5.882H321.528V5.738C321.528 5.546 321.456 5.384 321.312 5.252C321.18 5.108 321.018 5.036 320.826 5.036H314.562C314.37 5.036 314.202 5.108 314.058 5.252C313.926 5.384 313.86 5.546 313.86 5.738V7.34C313.86 7.532 313.926 7.7 314.058 7.844C314.202 7.976 314.37 8.042 314.562 8.042H320.826C321.234 8.042 321.6 8.144 321.924 8.348C322.26 8.54 322.524 8.804 322.716 9.14C322.92 9.464 323.022 9.824 323.022 10.22V11.822C323.022 12.218 322.92 12.584 322.716 12.92C322.524 13.244 322.26 13.508 321.924 13.712C321.6 13.904 321.234 14 320.826 14H314.562ZM326.692 14C326.296 14 325.93 13.904 325.594 13.712C325.27 13.508 325.006 13.244 324.802 12.92C324.61 12.584 324.514 12.218 324.514 11.822V5.738C324.514 5.342 324.61 4.982 324.802 4.658C325.006 4.322 325.27 4.058 325.594 3.866C325.93 3.662 326.296 3.56 326.692 3.56H332.956C333.364 3.56 333.73 3.662 334.054 3.866C334.39 4.058 334.654 4.322 334.846 4.658C335.05 4.982 335.152 5.342 335.152 5.738V9.518H325.99V11.822C325.99 12.014 326.056 12.182 326.188 12.326C326.332 12.458 326.5 12.524 326.692 12.524H335.152V14H326.692ZM325.99 8.042H333.658V5.738C333.658 5.546 333.586 5.384 333.442 5.252C333.31 5.108 333.148 5.036 332.956 5.036H326.692C326.5 5.036 326.332 5.108 326.188 5.252C326.056 5.384 325.99 5.546 325.99 5.738V8.042ZM338.803 14C338.407 14 338.041 13.904 337.705 13.712C337.381 13.508 337.117 13.244 336.913 12.92C336.721 12.584 336.625 12.218 336.625 11.822V5.738C336.625 5.342 336.721 4.982 336.913 4.658C337.117 4.322 337.381 4.058 337.705 3.866C338.041 3.662 338.407 3.56 338.803 3.56H347.227V5.036H338.803C338.611 5.036 338.443 5.108 338.299 5.252C338.167 5.384 338.101 5.546 338.101 5.738V11.822C338.101 12.014 338.167 12.182 338.299 12.326C338.443 12.458 338.611 12.524 338.803 12.524H347.263V14H338.803ZM350.898 14C350.49 14 350.118 13.904 349.782 13.712C349.458 13.508 349.2 13.244 349.008 12.92C348.816 12.584 348.72 12.218 348.72 11.822V0.139999H350.196V3.56H354.714V5.036H350.196V11.822C350.196 12.014 350.262 12.182 350.394 12.326C350.538 12.458 350.706 12.524 350.898 12.524H354.714V14H350.898ZM358.244 14C357.848 14 357.482 13.904 357.146 13.712C356.822 13.508 356.558 13.244 356.354 12.92C356.162 12.584 356.066 12.218 356.066 11.822V5.738C356.066 5.342 356.162 4.982 356.354 4.658C356.558 4.322 356.822 4.058 357.146 3.866C357.482 3.662 357.848 3.56 358.244 3.56H364.508C364.916 3.56 365.282 3.662 365.606 3.866C365.942 4.058 366.206 4.322 366.398 4.658C366.602 4.982 366.704 5.342 366.704 5.738V9.518H357.542V11.822C357.542 12.014 357.608 12.182 357.74 12.326C357.884 12.458 358.052 12.524 358.244 12.524H366.704V14H358.244ZM357.542 8.042H365.21V5.738C365.21 5.546 365.138 5.384 364.994 5.252C364.862 5.108 364.7 5.036 364.508 5.036H358.244C358.052 5.036 357.884 5.108 357.74 5.252C357.608 5.384 357.542 5.546 357.542 5.738V8.042ZM370.743 14C370.335 14 369.963 13.904 369.627 13.712C369.303 13.508 369.045 13.244 368.853 12.92C368.661 12.584 368.565 12.218 368.565 11.822V0.139999H370.041V3.56H374.559V5.036H370.041V11.822C370.041 12.014 370.107 12.182 370.239 12.326C370.383 12.458 370.551 12.524 370.743 12.524H374.559V14H370.743ZM378.126 14C377.73 14 377.364 13.904 377.028 13.712C376.704 13.508 376.44 13.244 376.236 12.92C376.044 12.584 375.948 12.218 375.948 11.822V3.56H377.424V11.822C377.424 12.014 377.49 12.182 377.622 12.326C377.766 12.458 377.934 12.524 378.126 12.524H384.39C384.582 12.524 384.75 12.458 384.894 12.326C385.038 12.182 385.11 12.014 385.11 11.822V3.56H386.586V11.822C386.586 12.218 386.484 12.584 386.28 12.92C386.088 13.244 385.824 13.508 385.488 13.712C385.164 13.904 384.798 14 384.39 14H378.126ZM388.446 14V5.738C388.446 5.342 388.542 4.982 388.734 4.658C388.938 4.322 389.202 4.058 389.526 3.866C389.862 3.662 390.228 3.56 390.624 3.56H396.492V5.036H390.624C390.432 5.036 390.264 5.108 390.12 5.252C389.988 5.384 389.922 5.546 389.922 5.738V14H388.446ZM404.739 14C404.343 14 403.977 13.904 403.641 13.712C403.317 13.508 403.053 13.244 402.849 12.92C402.657 12.584 402.561 12.218 402.561 11.822V8.042H411.705V5.738C411.705 5.546 411.633 5.384 411.489 5.252C411.357 5.108 411.195 5.036 411.003 5.036H402.561V3.56H411.003C411.411 3.56 411.777 3.662 412.101 3.866C412.437 4.058 412.701 4.322 412.893 4.658C413.097 4.982 413.199 5.342 413.199 5.738V14H404.739ZM404.739 12.524H411.705V9.518H404.037V11.822C404.037 12.014 404.103 12.182 404.235 12.326C404.379 12.458 404.547 12.524 404.739 12.524ZM416.733 14C416.325 14 415.953 13.904 415.617 13.712C415.293 13.508 415.029 13.244 414.825 12.92C414.633 12.584 414.537 12.218 414.537 11.822V5.738C414.537 5.342 414.633 4.982 414.825 4.658C415.029 4.322 415.293 4.058 415.617 3.866C415.953 3.662 416.325 3.56 416.733 3.56H423.699V0.139999H425.175V14H416.733ZM416.733 12.524H422.997C423.189 12.524 423.351 12.458 423.483 12.326C423.627 12.182 423.699 12.014 423.699 11.822V5.738C423.699 5.546 423.627 5.384 423.483 5.252C423.351 5.108 423.189 5.036 422.997 5.036H416.733C416.541 5.036 416.373 5.108 416.229 5.252C416.097 5.384 416.031 5.546 416.031 5.738V11.822C416.031 12.014 416.097 12.182 416.229 12.326C416.373 12.458 416.541 12.524 416.733 12.524ZM427.065 14V3.56H428.541V14H427.065ZM427.065 1.616V0.139999H428.541V1.616H427.065ZM430.388 18.14V3.56H438.848C439.244 3.56 439.604 3.662 439.928 3.866C440.264 4.058 440.528 4.322 440.72 4.658C440.924 4.982 441.026 5.342 441.026 5.738V11.822C441.026 12.218 440.924 12.584 440.72 12.92C440.528 13.244 440.264 13.508 439.928 13.712C439.604 13.904 439.244 14 438.848 14H431.864V18.14H430.388ZM432.584 12.524H438.848C439.04 12.524 439.202 12.458 439.334 12.326C439.478 12.182 439.55 12.014 439.55 11.822V5.738C439.55 5.546 439.478 5.384 439.334 5.252C439.202 5.108 439.04 5.036 438.848 5.036H432.584C432.392 5.036 432.224 5.108 432.08 5.252C431.936 5.384 431.864 5.546 431.864 5.738V11.822C431.864 12.014 431.936 12.182 432.08 12.326C432.224 12.458 432.392 12.524 432.584 12.524ZM442.569 14V3.56H444.045V14H442.569ZM442.569 1.616V0.139999H444.045V1.616H442.569ZM448.419 14C448.023 14 447.657 13.904 447.321 13.712C446.997 13.508 446.733 13.244 446.529 12.92C446.337 12.584 446.241 12.218 446.241 11.822V11.678H447.717V11.822C447.717 12.014 447.783 12.182 447.915 12.326C448.059 12.458 448.227 12.524 448.419 12.524H454.683C454.875 12.524 455.037 12.458 455.169 12.326C455.313 12.182 455.385 12.014 455.385 11.822V10.22C455.385 10.028 455.313 9.866 455.169 9.734C455.037 9.59 454.875 9.518 454.683 9.518H448.419C448.023 9.518 447.657 9.422 447.321 9.23C446.997 9.026 446.733 8.762 446.529 8.438C446.337 8.102 446.241 7.736 446.241 7.34V5.738C446.241 5.342 446.337 4.982 446.529 4.658C446.733 4.322 446.997 4.058 447.321 3.866C447.657 3.662 448.023 3.56 448.419 3.56H454.683C455.091 3.56 455.457 3.662 455.781 3.866C456.117 4.058 456.381 4.322 456.573 4.658C456.777 4.982 456.879 5.342 456.879 5.738V5.882H455.385V5.738C455.385 5.546 455.313 5.384 455.169 5.252C455.037 5.108 454.875 5.036 454.683 5.036H448.419C448.227 5.036 448.059 5.108 447.915 5.252C447.783 5.384 447.717 5.546 447.717 5.738V7.34C447.717 7.532 447.783 7.7 447.915 7.844C448.059 7.976 448.227 8.042 448.419 8.042H454.683C455.091 8.042 455.457 8.144 455.781 8.348C456.117 8.54 456.381 8.804 456.573 9.14C456.777 9.464 456.879 9.824 456.879 10.22V11.822C456.879 12.218 456.777 12.584 456.573 12.92C456.381 13.244 456.117 13.508 455.781 13.712C455.457 13.904 455.091 14 454.683 14H448.419ZM460.479 14C460.083 14 459.717 13.904 459.381 13.712C459.057 13.508 458.793 13.244 458.589 12.92C458.397 12.584 458.301 12.218 458.301 11.822V5.738C458.301 5.342 458.397 4.982 458.589 4.658C458.793 4.322 459.057 4.058 459.381 3.866C459.717 3.662 460.083 3.56 460.479 3.56H468.903V5.036H460.479C460.287 5.036 460.119 5.108 459.975 5.252C459.843 5.384 459.777 5.546 459.777 5.738V11.822C459.777 12.014 459.843 12.182 459.975 12.326C460.119 12.458 460.287 12.524 460.479 12.524H468.939V14H460.479ZM470.834 14V3.56H472.31V14H470.834ZM470.834 1.616V0.139999H472.31V1.616H470.834ZM474.351 14V3.56H482.811C483.207 3.56 483.567 3.662 483.891 3.866C484.227 4.058 484.491 4.322 484.683 4.658C484.887 4.982 484.989 5.342 484.989 5.738V14H483.513V5.738C483.513 5.546 483.441 5.384 483.297 5.252C483.165 5.108 483.003 5.036 482.811 5.036H476.547C476.355 5.036 476.187 5.108 476.043 5.252C475.899 5.384 475.827 5.546 475.827 5.738V14H474.351ZM488.576 18.122V16.628H495.092C495.284 16.628 495.446 16.556 495.578 16.412C495.722 16.28 495.794 16.118 495.794 15.926V14H488.828C488.432 14 488.066 13.904 487.73 13.712C487.406 13.508 487.142 13.244 486.938 12.92C486.746 12.584 486.65 12.218 486.65 11.822V5.738C486.65 5.342 486.746 4.982 486.938 4.658C487.142 4.322 487.406 4.058 487.73 3.866C488.066 3.662 488.432 3.56 488.828 3.56H495.092C495.5 3.56 495.866 3.662 496.19 3.866C496.526 4.058 496.79 4.322 496.982 4.658C497.174 4.982 497.27 5.342 497.27 5.738V15.926C497.27 16.334 497.174 16.7 496.982 17.024C496.79 17.36 496.526 17.624 496.19 17.816C495.866 18.02 495.5 18.122 495.092 18.122H488.576ZM488.828 12.524H495.092C495.284 12.524 495.446 12.458 495.578 12.326C495.722 12.182 495.794 12.014 495.794 11.822V5.738C495.794 5.546 495.722 5.384 495.578 5.252C495.446 5.108 495.284 5.036 495.092 5.036H488.828C488.636 5.036 488.468 5.108 488.324 5.252C488.192 5.384 488.126 5.546 488.126 5.738V11.822C488.126 12.014 488.192 12.182 488.324 12.326C488.468 12.458 488.636 12.524 488.828 12.524ZM506.2 14C505.804 14 505.438 13.904 505.102 13.712C504.778 13.508 504.514 13.244 504.31 12.92C504.118 12.584 504.022 12.218 504.022 11.822V5.738C504.022 5.342 504.118 4.982 504.31 4.658C504.514 4.322 504.778 4.058 505.102 3.866C505.438 3.662 505.804 3.56 506.2 3.56H512.464C512.872 3.56 513.238 3.662 513.562 3.866C513.898 4.058 514.162 4.322 514.354 4.658C514.558 4.982 514.66 5.342 514.66 5.738V9.518H505.498V11.822C505.498 12.014 505.564 12.182 505.696 12.326C505.84 12.458 506.008 12.524 506.2 12.524H514.66V14H506.2ZM505.498 8.042H513.166V5.738C513.166 5.546 513.094 5.384 512.95 5.252C512.818 5.108 512.656 5.036 512.464 5.036H506.2C506.008 5.036 505.84 5.108 505.696 5.252C505.564 5.384 505.498 5.546 505.498 5.738V8.042ZM518.329 14C517.933 14 517.567 13.904 517.231 13.712C516.907 13.508 516.643 13.244 516.439 12.92C516.247 12.584 516.151 12.218 516.151 11.822V0.139999H517.627V11.822C517.627 12.014 517.693 12.182 517.825 12.326C517.969 12.458 518.137 12.524 518.329 12.524H520.093V14H518.329ZM521.582 14V3.56H523.058V14H521.582ZM521.582 1.616V0.139999H523.058V1.616H521.582ZM527.523 14C527.115 14 526.743 13.904 526.407 13.712C526.083 13.508 525.825 13.244 525.633 12.92C525.441 12.584 525.345 12.218 525.345 11.822V0.139999H526.821V3.56H531.339V5.036H526.821V11.822C526.821 12.014 526.887 12.182 527.019 12.326C527.163 12.458 527.331 12.524 527.523 12.524H531.339V14H527.523ZM532.745 14V12.524H534.221V14H532.745ZM541.571 14V1.04H553.397V2.498H543.029V6.782H551.363V8.258H543.029V14H541.571ZM556.631 14C556.235 14 555.869 13.904 555.533 13.712C555.209 13.508 554.945 13.244 554.741 12.92C554.549 12.584 554.453 12.218 554.453 11.822V5.738C554.453 5.342 554.549 4.982 554.741 4.658C554.945 4.322 555.209 4.058 555.533 3.866C555.869 3.662 556.235 3.56 556.631 3.56H562.895C563.303 3.56 563.669 3.662 563.993 3.866C564.329 4.058 564.593 4.322 564.785 4.658C564.989 4.982 565.091 5.342 565.091 5.738V9.518H555.929V11.822C555.929 12.014 555.995 12.182 556.127 12.326C556.271 12.458 556.439 12.524 556.631 12.524H565.091V14H556.631ZM555.929 8.042H563.597V5.738C563.597 5.546 563.525 5.384 563.381 5.252C563.249 5.108 563.087 5.036 562.895 5.036H556.631C556.439 5.036 556.271 5.108 556.127 5.252C555.995 5.384 555.929 5.546 555.929 5.738V8.042ZM568.76 14C568.364 14 567.998 13.904 567.662 13.712C567.338 13.508 567.074 13.244 566.87 12.92C566.678 12.584 566.582 12.218 566.582 11.822V0.139999H568.058V11.822C568.058 12.014 568.124 12.182 568.256 12.326C568.4 12.458 568.568 12.524 568.76 12.524H570.524V14H568.76ZM572.014 14V3.56H573.49V14H572.014ZM572.014 1.616V0.139999H573.49V1.616H572.014ZM577.864 14C577.468 14 577.102 13.904 576.766 13.712C576.442 13.508 576.178 13.244 575.974 12.92C575.782 12.584 575.686 12.218 575.686 11.822V11.678H577.162V11.822C577.162 12.014 577.228 12.182 577.36 12.326C577.504 12.458 577.672 12.524 577.864 12.524H584.128C584.32 12.524 584.482 12.458 584.614 12.326C584.758 12.182 584.83 12.014 584.83 11.822V10.22C584.83 10.028 584.758 9.866 584.614 9.734C584.482 9.59 584.32 9.518 584.128 9.518H577.864C577.468 9.518 577.102 9.422 576.766 9.23C576.442 9.026 576.178 8.762 575.974 8.438C575.782 8.102 575.686 7.736 575.686 7.34V5.738C575.686 5.342 575.782 4.982 575.974 4.658C576.178 4.322 576.442 4.058 576.766 3.866C577.102 3.662 577.468 3.56 577.864 3.56H584.128C584.536 3.56 584.902 3.662 585.226 3.866C585.562 4.058 585.826 4.322 586.018 4.658C586.222 4.982 586.324 5.342 586.324 5.738V5.882H584.83V5.738C584.83 5.546 584.758 5.384 584.614 5.252C584.482 5.108 584.32 5.036 584.128 5.036H577.864C577.672 5.036 577.504 5.108 577.36 5.252C577.228 5.384 577.162 5.546 577.162 5.738V7.34C577.162 7.532 577.228 7.7 577.36 7.844C577.504 7.976 577.672 8.042 577.864 8.042H584.128C584.536 8.042 584.902 8.144 585.226 8.348C585.562 8.54 585.826 8.804 586.018 9.14C586.222 9.464 586.324 9.824 586.324 10.22V11.822C586.324 12.218 586.222 12.584 586.018 12.92C585.826 13.244 585.562 13.508 585.226 13.712C584.902 13.904 584.536 14 584.128 14H577.864ZM588.134 16.358V12.524H589.61V14.288C589.61 14.612 589.544 14.912 589.412 15.188C589.292 15.464 589.118 15.704 588.89 15.908C588.674 16.112 588.422 16.262 588.134 16.358ZM0.972 42V31.56H9.432C9.828 31.56 10.188 31.662 10.512 31.866C10.848 32.058 11.112 32.322 11.304 32.658C11.508 32.982 11.61 33.342 11.61 33.738V42H10.134V33.738C10.134 33.546 10.062 33.384 9.918 33.252C9.786 33.108 9.624 33.036 9.432 33.036H3.168C2.976 33.036 2.808 33.108 2.664 33.252C2.52 33.384 2.448 33.546 2.448 33.738V42H0.972ZM15.6292 42C15.2332 42 14.8672 41.904 14.5312 41.712C14.2072 41.508 13.9432 41.244 13.7392 40.92C13.5472 40.584 13.4512 40.218 13.4512 39.822V33.738C13.4512 33.342 13.5472 32.982 13.7392 32.658C13.9432 32.322 14.2072 32.058 14.5312 31.866C14.8672 31.662 15.2332 31.56 15.6292 31.56H21.8932C22.3012 31.56 22.6672 31.662 22.9912 31.866C23.3272 32.058 23.5912 32.322 23.7832 32.658C23.9872 32.982 24.0892 33.342 24.0892 33.738V37.518H14.9272V39.822C14.9272 40.014 14.9932 40.182 15.1252 40.326C15.2692 40.458 15.4372 40.524 15.6292 40.524H24.0892V42H15.6292ZM14.9272 36.042H22.5952V33.738C22.5952 33.546 22.5232 33.384 22.3792 33.252C22.2472 33.108 22.0852 33.036 21.8932 33.036H15.6292C15.4372 33.036 15.2692 33.108 15.1252 33.252C14.9932 33.384 14.9272 33.546 14.9272 33.738V36.042ZM27.7405 42C27.3445 42 26.9785 41.904 26.6425 41.712C26.3185 41.508 26.0545 41.244 25.8505 40.92C25.6585 40.584 25.5625 40.218 25.5625 39.822V33.738C25.5625 33.342 25.6585 32.982 25.8505 32.658C26.0545 32.322 26.3185 32.058 26.6425 31.866C26.9785 31.662 27.3445 31.56 27.7405 31.56H36.1645V33.036H27.7405C27.5485 33.036 27.3805 33.108 27.2365 33.252C27.1045 33.384 27.0385 33.546 27.0385 33.738V39.822C27.0385 40.014 27.1045 40.182 27.2365 40.326C27.3805 40.458 27.5485 40.524 27.7405 40.524H36.2005V42H27.7405ZM44.6745 42C44.2665 42 43.8945 41.904 43.5585 41.712C43.2345 41.508 42.9705 41.244 42.7665 40.92C42.5745 40.584 42.4785 40.218 42.4785 39.822V33.738C42.4785 33.342 42.5745 32.982 42.7665 32.658C42.9705 32.322 43.2345 32.058 43.5585 31.866C43.8945 31.662 44.2665 31.56 44.6745 31.56H51.6405V28.14H53.1165V42H44.6745ZM44.6745 40.524H50.9385C51.1305 40.524 51.2925 40.458 51.4245 40.326C51.5685 40.182 51.6405 40.014 51.6405 39.822V33.738C51.6405 33.546 51.5685 33.384 51.4245 33.252C51.2925 33.108 51.1305 33.036 50.9385 33.036H44.6745C44.4825 33.036 44.3145 33.108 44.1705 33.252C44.0385 33.384 43.9725 33.546 43.9725 33.738V39.822C43.9725 40.014 44.0385 40.182 44.1705 40.326C44.3145 40.458 44.4825 40.524 44.6745 40.524ZM56.762 42C56.366 42 56 41.904 55.664 41.712C55.34 41.508 55.076 41.244 54.872 40.92C54.68 40.584 54.584 40.218 54.584 39.822V33.738C54.584 33.342 54.68 32.982 54.872 32.658C55.076 32.322 55.34 32.058 55.664 31.866C56 31.662 56.366 31.56 56.762 31.56H63.026C63.434 31.56 63.8 31.662 64.124 31.866C64.46 32.058 64.724 32.322 64.916 32.658C65.12 32.982 65.222 33.342 65.222 33.738V39.822C65.222 40.218 65.12 40.584 64.916 40.92C64.724 41.244 64.46 41.508 64.124 41.712C63.8 41.904 63.434 42 63.026 42H56.762ZM56.762 40.524H63.026C63.218 40.524 63.38 40.458 63.512 40.326C63.656 40.182 63.728 40.014 63.728 39.822V33.738C63.728 33.546 63.656 33.384 63.512 33.252C63.38 33.108 63.218 33.036 63.026 33.036H56.762C56.57 33.036 56.402 33.108 56.258 33.252C56.126 33.384 56.06 33.546 56.06 33.738V39.822C56.06 40.014 56.126 40.182 56.258 40.326C56.402 40.458 56.57 40.524 56.762 40.524ZM66.8372 42V31.56H75.2972C75.6932 31.56 76.0532 31.662 76.3772 31.866C76.7132 32.058 76.9772 32.322 77.1692 32.658C77.3732 32.982 77.4752 33.342 77.4752 33.738V42H75.9992V33.738C75.9992 33.546 75.9272 33.384 75.7832 33.252C75.6512 33.108 75.4892 33.036 75.2972 33.036H69.0332C68.8412 33.036 68.6732 33.108 68.5292 33.252C68.3852 33.384 68.3132 33.546 68.3132 33.738V42H66.8372ZM81.4944 42C81.0984 42 80.7324 41.904 80.3964 41.712C80.0724 41.508 79.8084 41.244 79.6044 40.92C79.4124 40.584 79.3164 40.218 79.3164 39.822V33.738C79.3164 33.342 79.4124 32.982 79.6044 32.658C79.8084 32.322 80.0724 32.058 80.3964 31.866C80.7324 31.662 81.0984 31.56 81.4944 31.56H87.7584C88.1664 31.56 88.5324 31.662 88.8564 31.866C89.1924 32.058 89.4564 32.322 89.6484 32.658C89.8524 32.982 89.9544 33.342 89.9544 33.738V37.518H80.7924V39.822C80.7924 40.014 80.8584 40.182 80.9904 40.326C81.1344 40.458 81.3024 40.524 81.4944 40.524H89.9544V42H81.4944ZM80.7924 36.042H88.4604V33.738C88.4604 33.546 88.3884 33.384 88.2444 33.252C88.1124 33.108 87.9504 33.036 87.7584 33.036H81.4944C81.3024 33.036 81.1344 33.108 80.9904 33.252C80.8584 33.384 80.7924 33.546 80.7924 33.738V36.042ZM93.6058 42C93.2098 42 92.8438 41.904 92.5078 41.712C92.1838 41.508 91.9198 41.244 91.7158 40.92C91.5238 40.584 91.4278 40.218 91.4278 39.822V33.738C91.4278 33.342 91.5238 32.982 91.7158 32.658C91.9198 32.322 92.1838 32.058 92.5078 31.866C92.8438 31.662 93.2098 31.56 93.6058 31.56H102.03V33.036H93.6058C93.4138 33.036 93.2458 33.108 93.1018 33.252C92.9698 33.384 92.9038 33.546 92.9038 33.738V39.822C92.9038 40.014 92.9698 40.182 93.1018 40.326C93.2458 40.458 93.4138 40.524 93.6058 40.524H102.066V42H93.6058ZM108.866 42V31.56H110.342V42H108.866ZM108.866 29.616V28.14H110.342V29.616H108.866ZM112.382 42V31.56H120.842C121.238 31.56 121.598 31.662 121.922 31.866C122.258 32.058 122.522 32.322 122.714 32.658C122.918 32.982 123.02 33.342 123.02 33.738V42H121.544V33.738C121.544 33.546 121.472 33.384 121.328 33.252C121.196 33.108 121.034 33.036 120.842 33.036H114.578C114.386 33.036 114.218 33.108 114.074 33.252C113.93 33.384 113.858 33.546 113.858 33.738V42H112.382ZM129.82 42V31.56H143.608C144.016 31.56 144.382 31.662 144.706 31.866C145.042 32.058 145.306 32.322 145.498 32.658C145.69 32.982 145.786 33.342 145.786 33.738V42H144.328V33.738C144.328 33.546 144.256 33.384 144.112 33.252C143.968 33.108 143.8 33.036 143.608 33.036H139.27C139.078 33.036 138.91 33.108 138.766 33.252C138.634 33.384 138.568 33.546 138.568 33.738V42H137.074V33.738C137.074 33.546 137.002 33.384 136.858 33.252C136.726 33.108 136.564 33.036 136.372 33.036H132.016C131.824 33.036 131.656 33.108 131.512 33.252C131.38 33.384 131.314 33.546 131.314 33.738V42H129.82ZM149.539 42C149.143 42 148.777 41.904 148.441 41.712C148.117 41.508 147.853 41.244 147.649 40.92C147.457 40.584 147.361 40.218 147.361 39.822V33.738C147.361 33.342 147.457 32.982 147.649 32.658C147.853 32.322 148.117 32.058 148.441 31.866C148.777 31.662 149.143 31.56 149.539 31.56H155.803C156.211 31.56 156.577 31.662 156.901 31.866C157.237 32.058 157.501 32.322 157.693 32.658C157.897 32.982 157.999 33.342 157.999 33.738V39.822C157.999 40.218 157.897 40.584 157.693 40.92C157.501 41.244 157.237 41.508 156.901 41.712C156.577 41.904 156.211 42 155.803 42H149.539ZM149.539 40.524H155.803C155.995 40.524 156.157 40.458 156.289 40.326C156.433 40.182 156.505 40.014 156.505 39.822V33.738C156.505 33.546 156.433 33.384 156.289 33.252C156.157 33.108 155.995 33.036 155.803 33.036H149.539C149.347 33.036 149.179 33.108 149.035 33.252C148.903 33.384 148.837 33.546 148.837 33.738V39.822C148.837 40.014 148.903 40.182 149.035 40.326C149.179 40.458 149.347 40.524 149.539 40.524ZM159.666 42V33.738C159.666 33.342 159.762 32.982 159.954 32.658C160.158 32.322 160.422 32.058 160.746 31.866C161.082 31.662 161.448 31.56 161.844 31.56H167.712V33.036H161.844C161.652 33.036 161.484 33.108 161.34 33.252C161.208 33.384 161.142 33.546 161.142 33.738V42H159.666ZM168.913 42V28.14H170.389V31.56H177.373C177.769 31.56 178.129 31.662 178.453 31.866C178.789 32.058 179.053 32.322 179.245 32.658C179.449 32.982 179.551 33.342 179.551 33.738V39.822C179.551 40.218 179.449 40.584 179.245 40.92C179.053 41.244 178.789 41.508 178.453 41.712C178.129 41.904 177.769 42 177.373 42H168.913ZM171.109 40.524H177.373C177.565 40.524 177.727 40.458 177.859 40.326C178.003 40.182 178.075 40.014 178.075 39.822V33.738C178.075 33.546 178.003 33.384 177.859 33.252C177.727 33.108 177.565 33.036 177.373 33.036H171.109C170.917 33.036 170.749 33.108 170.605 33.252C170.461 33.384 170.389 33.546 170.389 33.738V39.822C170.389 40.014 170.461 40.182 170.605 40.326C170.749 40.458 170.917 40.524 171.109 40.524ZM180.883 42V31.56H182.359V42H180.883ZM180.883 29.616V28.14H182.359V29.616H180.883ZM189.568 46.14V31.56H198.028C198.424 31.56 198.784 31.662 199.108 31.866C199.444 32.058 199.708 32.322 199.9 32.658C200.104 32.982 200.206 33.342 200.206 33.738V39.822C200.206 40.218 200.104 40.584 199.9 40.92C199.708 41.244 199.444 41.508 199.108 41.712C198.784 41.904 198.424 42 198.028 42H191.044V46.14H189.568ZM191.764 40.524H198.028C198.22 40.524 198.382 40.458 198.514 40.326C198.658 40.182 198.73 40.014 198.73 39.822V33.738C198.73 33.546 198.658 33.384 198.514 33.252C198.382 33.108 198.22 33.036 198.028 33.036H191.764C191.572 33.036 191.404 33.108 191.26 33.252C191.116 33.384 191.044 33.546 191.044 33.738V39.822C191.044 40.014 191.116 40.182 191.26 40.326C191.404 40.458 191.572 40.524 191.764 40.524ZM203.681 42C203.285 42 202.919 41.904 202.583 41.712C202.259 41.508 201.995 41.244 201.791 40.92C201.599 40.584 201.503 40.218 201.503 39.822V31.56H202.979V39.822C202.979 40.014 203.045 40.182 203.177 40.326C203.321 40.458 203.489 40.524 203.681 40.524H209.945C210.137 40.524 210.305 40.458 210.449 40.326C210.593 40.182 210.665 40.014 210.665 39.822V31.56H212.141V39.822C212.141 40.218 212.039 40.584 211.835 40.92C211.643 41.244 211.379 41.508 211.043 41.712C210.719 41.904 210.353 42 209.945 42H203.681ZM216.178 42C215.782 42 215.416 41.904 215.08 41.712C214.756 41.508 214.492 41.244 214.288 40.92C214.096 40.584 214 40.218 214 39.822V28.14H215.476V39.822C215.476 40.014 215.542 40.182 215.674 40.326C215.818 40.458 215.986 40.524 216.178 40.524H217.942V42H216.178ZM223.579 42L217.819 31.56H219.547L224.443 40.56L229.339 31.56H231.067L225.289 42H223.579ZM232.598 42V31.56H234.074V42H232.598ZM232.598 29.616V28.14H234.074V29.616H232.598ZM236.115 42V31.56H244.575C244.971 31.56 245.331 31.662 245.655 31.866C245.991 32.058 246.255 32.322 246.447 32.658C246.651 32.982 246.753 33.342 246.753 33.738V42H245.277V33.738C245.277 33.546 245.205 33.384 245.061 33.252C244.929 33.108 244.767 33.036 244.575 33.036H238.311C238.119 33.036 237.951 33.108 237.807 33.252C237.663 33.384 237.591 33.546 237.591 33.738V42H236.115ZM250.79 42C250.394 42 250.028 41.904 249.692 41.712C249.368 41.508 249.104 41.244 248.9 40.92C248.708 40.584 248.612 40.218 248.612 39.822V36.042H257.756V33.738C257.756 33.546 257.684 33.384 257.54 33.252C257.408 33.108 257.246 33.036 257.054 33.036H248.612V31.56H257.054C257.462 31.56 257.828 31.662 258.152 31.866C258.488 32.058 258.752 32.322 258.944 32.658C259.148 32.982 259.25 33.342 259.25 33.738V42H250.79ZM250.79 40.524H257.756V37.518H250.088V39.822C250.088 40.014 250.154 40.182 250.286 40.326C250.43 40.458 250.598 40.524 250.79 40.524ZM261.022 42V33.738C261.022 33.342 261.118 32.982 261.31 32.658C261.514 32.322 261.778 32.058 262.102 31.866C262.438 31.662 262.804 31.56 263.2 31.56H269.068V33.036H263.2C263.008 33.036 262.84 33.108 262.696 33.252C262.564 33.384 262.498 33.546 262.498 33.738V42H261.022ZM269.917 42V40.524H271.393V42H269.917ZM278.743 42V29.04H290.569V30.498H280.201V34.782H288.535V36.258H280.201V40.542H290.569V42H278.743ZM292.452 42V31.56H300.912C301.308 31.56 301.668 31.662 301.992 31.866C302.328 32.058 302.592 32.322 302.784 32.658C302.988 32.982 303.09 33.342 303.09 33.738V42H301.614V33.738C301.614 33.546 301.542 33.384 301.398 33.252C301.266 33.108 301.104 33.036 300.912 33.036H294.648C294.456 33.036 294.288 33.108 294.144 33.252C294 33.384 293.928 33.546 293.928 33.738V42H292.452ZM304.95 42V31.56H306.426V42H304.95ZM304.95 29.616V28.14H306.426V29.616H304.95ZM308.73 42V31.56H322.518C322.926 31.56 323.292 31.662 323.616 31.866C323.952 32.058 324.216 32.322 324.408 32.658C324.6 32.982 324.696 33.342 324.696 33.738V42H323.238V33.738C323.238 33.546 323.166 33.384 323.022 33.252C322.878 33.108 322.71 33.036 322.518 33.036H318.18C317.988 33.036 317.82 33.108 317.676 33.252C317.544 33.384 317.478 33.546 317.478 33.738V42H315.984V33.738C315.984 33.546 315.912 33.384 315.768 33.252C315.636 33.108 315.474 33.036 315.282 33.036H310.926C310.734 33.036 310.566 33.108 310.422 33.252C310.29 33.384 310.224 33.546 310.224 33.738V42H308.73ZM331.23 42V31.56H339.69C340.086 31.56 340.446 31.662 340.77 31.866C341.106 32.058 341.37 32.322 341.562 32.658C341.766 32.982 341.868 33.342 341.868 33.738V42H340.392V33.738C340.392 33.546 340.32 33.384 340.176 33.252C340.044 33.108 339.882 33.036 339.69 33.036H333.426C333.234 33.036 333.066 33.108 332.922 33.252C332.778 33.384 332.706 33.546 332.706 33.738V42H331.23ZM345.623 42C345.227 42 344.861 41.904 344.525 41.712C344.201 41.508 343.937 41.244 343.733 40.92C343.541 40.584 343.445 40.218 343.445 39.822V33.738C343.445 33.342 343.541 32.982 343.733 32.658C343.937 32.322 344.201 32.058 344.525 31.866C344.861 31.662 345.227 31.56 345.623 31.56H351.887C352.295 31.56 352.661 31.662 352.985 31.866C353.321 32.058 353.585 32.322 353.777 32.658C353.981 32.982 354.083 33.342 354.083 33.738V39.822C354.083 40.218 353.981 40.584 353.777 40.92C353.585 41.244 353.321 41.508 352.985 41.712C352.661 41.904 352.295 42 351.887 42H345.623ZM345.623 40.524H351.887C352.079 40.524 352.241 40.458 352.373 40.326C352.517 40.182 352.589 40.014 352.589 39.822V33.738C352.589 33.546 352.517 33.384 352.373 33.252C352.241 33.108 352.079 33.036 351.887 33.036H345.623C345.431 33.036 345.263 33.108 345.119 33.252C344.987 33.384 344.921 33.546 344.921 33.738V39.822C344.921 40.014 344.987 40.182 345.119 40.326C345.263 40.458 345.431 40.524 345.623 40.524ZM355.699 42V31.56H364.159C364.555 31.56 364.915 31.662 365.239 31.866C365.575 32.058 365.839 32.322 366.031 32.658C366.235 32.982 366.337 33.342 366.337 33.738V42H364.861V33.738C364.861 33.546 364.789 33.384 364.645 33.252C364.513 33.108 364.351 33.036 364.159 33.036H357.895C357.703 33.036 357.535 33.108 357.391 33.252C357.247 33.384 357.175 33.546 357.175 33.738V42H355.699ZM373.136 46.14V31.56H381.596C381.992 31.56 382.352 31.662 382.676 31.866C383.012 32.058 383.276 32.322 383.468 32.658C383.672 32.982 383.774 33.342 383.774 33.738V39.822C383.774 40.218 383.672 40.584 383.468 40.92C383.276 41.244 383.012 41.508 382.676 41.712C382.352 41.904 381.992 42 381.596 42H374.612V46.14H373.136ZM375.332 40.524H381.596C381.788 40.524 381.95 40.458 382.082 40.326C382.226 40.182 382.298 40.014 382.298 39.822V33.738C382.298 33.546 382.226 33.384 382.082 33.252C381.95 33.108 381.788 33.036 381.596 33.036H375.332C375.14 33.036 374.972 33.108 374.828 33.252C374.684 33.384 374.612 33.546 374.612 33.738V39.822C374.612 40.014 374.684 40.182 374.828 40.326C374.972 40.458 375.14 40.524 375.332 40.524ZM387.249 42C386.853 42 386.487 41.904 386.151 41.712C385.827 41.508 385.563 41.244 385.359 40.92C385.167 40.584 385.071 40.218 385.071 39.822V31.56H386.547V39.822C386.547 40.014 386.613 40.182 386.745 40.326C386.889 40.458 387.057 40.524 387.249 40.524H393.513C393.705 40.524 393.873 40.458 394.017 40.326C394.161 40.182 394.233 40.014 394.233 39.822V31.56H395.709V39.822C395.709 40.218 395.607 40.584 395.403 40.92C395.211 41.244 394.947 41.508 394.611 41.712C394.287 41.904 393.921 42 393.513 42H387.249ZM399.747 42C399.351 42 398.985 41.904 398.649 41.712C398.325 41.508 398.061 41.244 397.857 40.92C397.665 40.584 397.569 40.218 397.569 39.822V28.14H399.045V39.822C399.045 40.014 399.111 40.182 399.243 40.326C399.387 40.458 399.555 40.524 399.747 40.524H401.511V42H399.747ZM407.148 42L401.388 31.56H403.116L408.012 40.56L412.908 31.56H414.636L408.858 42H407.148ZM416.166 42V31.56H417.642V42H416.166ZM416.166 29.616V28.14H417.642V29.616H416.166ZM419.683 42V31.56H428.143C428.539 31.56 428.899 31.662 429.223 31.866C429.559 32.058 429.823 32.322 430.015 32.658C430.219 32.982 430.321 33.342 430.321 33.738V42H428.845V33.738C428.845 33.546 428.773 33.384 428.629 33.252C428.497 33.108 428.335 33.036 428.143 33.036H421.879C421.687 33.036 421.519 33.108 421.375 33.252C421.231 33.384 421.159 33.546 421.159 33.738V42H419.683ZM434.358 42C433.962 42 433.596 41.904 433.26 41.712C432.936 41.508 432.672 41.244 432.468 40.92C432.276 40.584 432.18 40.218 432.18 39.822V36.042H441.324V33.738C441.324 33.546 441.252 33.384 441.108 33.252C440.976 33.108 440.814 33.036 440.622 33.036H432.18V31.56H440.622C441.03 31.56 441.396 31.662 441.72 31.866C442.056 32.058 442.32 32.322 442.512 32.658C442.716 32.982 442.818 33.342 442.818 33.738V42H434.358ZM434.358 40.524H441.324V37.518H433.656V39.822C433.656 40.014 433.722 40.182 433.854 40.326C433.998 40.458 434.166 40.524 434.358 40.524ZM444.59 42V33.738C444.59 33.342 444.686 32.982 444.878 32.658C445.082 32.322 445.346 32.058 445.67 31.866C446.006 31.662 446.372 31.56 446.768 31.56H452.636V33.036H446.768C446.576 33.036 446.408 33.108 446.264 33.252C446.132 33.384 446.066 33.546 446.066 33.738V42H444.59ZM458.742 42V31.56H467.202C467.598 31.56 467.958 31.662 468.282 31.866C468.618 32.058 468.882 32.322 469.074 32.658C469.278 32.982 469.38 33.342 469.38 33.738V42H467.904V33.738C467.904 33.546 467.832 33.384 467.688 33.252C467.556 33.108 467.394 33.036 467.202 33.036H460.938C460.746 33.036 460.578 33.108 460.434 33.252C460.29 33.384 460.218 33.546 460.218 33.738V42H458.742ZM473.399 42C473.003 42 472.637 41.904 472.301 41.712C471.977 41.508 471.713 41.244 471.509 40.92C471.317 40.584 471.221 40.218 471.221 39.822V33.738C471.221 33.342 471.317 32.982 471.509 32.658C471.713 32.322 471.977 32.058 472.301 31.866C472.637 31.662 473.003 31.56 473.399 31.56H479.663C480.071 31.56 480.437 31.662 480.761 31.866C481.097 32.058 481.361 32.322 481.553 32.658C481.757 32.982 481.859 33.342 481.859 33.738V37.518H472.697V39.822C472.697 40.014 472.763 40.182 472.895 40.326C473.039 40.458 473.207 40.524 473.399 40.524H481.859V42H473.399ZM472.697 36.042H480.365V33.738C480.365 33.546 480.293 33.384 480.149 33.252C480.017 33.108 479.855 33.036 479.663 33.036H473.399C473.207 33.036 473.039 33.108 472.895 33.252C472.763 33.384 472.697 33.546 472.697 33.738V36.042ZM492.288 46.14V42H485.322C484.914 42 484.542 41.904 484.206 41.712C483.882 41.508 483.618 41.244 483.414 40.92C483.222 40.584 483.126 40.218 483.126 39.822V33.738C483.126 33.342 483.222 32.982 483.414 32.658C483.618 32.322 483.882 32.058 484.206 31.866C484.542 31.662 484.914 31.56 485.322 31.56H493.764V46.14H492.288ZM485.322 40.524H491.586C491.778 40.524 491.94 40.458 492.072 40.326C492.216 40.182 492.288 40.014 492.288 39.822V33.738C492.288 33.546 492.216 33.384 492.072 33.252C491.94 33.108 491.778 33.036 491.586 33.036H485.322C485.13 33.036 484.962 33.108 484.818 33.252C484.686 33.384 484.62 33.546 484.62 33.738V39.822C484.62 40.014 484.686 40.182 484.818 40.326C484.962 40.458 485.13 40.524 485.322 40.524ZM497.394 42C496.998 42 496.632 41.904 496.296 41.712C495.972 41.508 495.708 41.244 495.504 40.92C495.312 40.584 495.216 40.218 495.216 39.822V31.56H496.692V39.822C496.692 40.014 496.758 40.182 496.89 40.326C497.034 40.458 497.202 40.524 497.394 40.524H503.658C503.85 40.524 504.018 40.458 504.162 40.326C504.306 40.182 504.378 40.014 504.378 39.822V31.56H505.854V39.822C505.854 40.218 505.752 40.584 505.548 40.92C505.356 41.244 505.092 41.508 504.756 41.712C504.432 41.904 504.066 42 503.658 42H497.394ZM509.61 42C509.214 42 508.848 41.904 508.512 41.712C508.188 41.508 507.924 41.244 507.72 40.92C507.528 40.584 507.432 40.218 507.432 39.822V33.738C507.432 33.342 507.528 32.982 507.72 32.658C507.924 32.322 508.188 32.058 508.512 31.866C508.848 31.662 509.214 31.56 509.61 31.56H515.874C516.282 31.56 516.648 31.662 516.972 31.866C517.308 32.058 517.572 32.322 517.764 32.658C517.968 32.982 518.07 33.342 518.07 33.738V37.518H508.908V39.822C508.908 40.014 508.974 40.182 509.106 40.326C509.25 40.458 509.418 40.524 509.61 40.524H518.07V42H509.61ZM508.908 36.042H516.576V33.738C516.576 33.546 516.504 33.384 516.36 33.252C516.228 33.108 516.066 33.036 515.874 33.036H509.61C509.418 33.036 509.25 33.108 509.106 33.252C508.974 33.384 508.908 33.546 508.908 33.738V36.042ZM519.949 42V40.524H521.425V42H519.949Z" fill="#999999"/>
</svg>
