<svg width="733" height="33" viewBox="0 0 733 33" fill="none" xmlns="http://www.w3.org/2000/svg">
<path d="M17.2468 7.82812C18.0598 8.96628 18.4968 10.33 18.4968 11.7287V13.0781C18.9253 13.0781 19.3414 12.9349 19.6791 12.6712C20.0168 12.4075 20.2567 12.0386 20.3606 11.6229L20.4968 11.0781L20.8663 11.5215C21.4621 12.2364 21.7854 13.1391 21.7789 14.0696C21.7725 15.0002 21.4367 15.8983 20.8311 16.6049C20.6041 16.8696 20.4855 17.2103 20.4988 17.5587C20.5122 17.9072 20.6565 18.2377 20.9031 18.4843C21.0407 18.622 21.2059 18.7291 21.3877 18.7986C21.5696 18.8681 21.7641 18.8984 21.9584 18.8877C22.1528 18.8769 22.3427 18.8252 22.5158 18.7361C22.6889 18.6469 22.8412 18.5222 22.9628 18.3702L23.9968 17.0781L24.9968 19.5781C25.4503 21.0896 25.486 22.6958 25.1002 24.226C24.7144 25.7562 23.9215 27.1534 22.8056 28.2693L22.6795 28.3954C20.9619 30.1131 18.6322 31.0781 16.2031 31.0781H15.1828C13.6011 31.0781 12.0464 30.6685 10.67 29.8892C9.29359 29.1099 8.14247 27.9875 7.3287 26.6312C6.35428 25.0072 5.90726 23.121 6.0492 21.2323C6.19114 19.3437 6.91505 17.5455 8.12127 16.0853L12.169 11.1854C12.5679 10.7025 12.8242 10.1181 12.9093 9.49757C12.9943 8.87709 12.9046 8.24519 12.6503 7.67287C12.3276 6.9469 12.2719 6.13021 12.4932 5.36717C12.7144 4.60413 13.1983 3.94387 13.8593 3.50312L15.9968 2.07812V3.92757C15.9968 5.32625 16.4339 6.68997 17.2468 7.82812Z" fill="url(#paint0_linear_1_264)"/>
<path d="M19.689 27.6663L19.6934 27.6619C20.4711 26.8782 21.026 25.9015 21.3009 24.8322C21.5758 23.7629 21.5608 22.6397 21.2575 21.5781L19.8029 23.0327C19.6657 23.17 19.5027 23.2789 19.3233 23.3532C19.144 23.4275 18.9517 23.4658 18.7576 23.4658C18.5635 23.4658 18.3712 23.4275 18.1919 23.3532C18.0125 23.2789 17.8495 23.17 17.7123 23.0327C17.4514 22.7719 17.2974 22.4229 17.2807 22.0544C17.2639 21.6859 17.3855 21.3244 17.6217 21.041C18.108 20.4575 18.4136 19.7448 18.5012 18.9903C18.5887 18.2358 18.4545 17.4722 18.1148 16.7928L15.7575 12.0781L15.395 16.0656C15.3515 16.5438 15.2119 17.0084 14.9845 17.4313C14.7571 17.8543 14.4466 18.2269 14.0717 18.527L12.0109 20.1757C11.4639 20.6133 11.0223 21.1683 10.7188 21.7997C10.4154 22.4311 10.2578 23.1226 10.2578 23.8232V24.3906C10.2578 25.0754 10.4084 25.7517 10.6988 26.3719C10.9892 26.992 11.4125 27.5407 11.9385 27.979C12.7902 28.6887 13.8665 29.0724 14.975 29.0615L16.4199 29.0472C17.6488 29.0349 18.8234 28.5387 19.689 27.6663Z" fill="#FDD04A"/>
<path d="M7.5 12.5781C7.36739 12.5781 7.24021 12.5254 7.14645 12.4317C7.05268 12.3379 7 12.2107 7 12.0781V11.0781C7 10.9455 7.05268 10.8183 7.14645 10.7245C7.24021 10.6308 7.36739 10.5781 7.5 10.5781C7.63261 10.5781 7.75979 10.6308 7.85355 10.7245C7.94732 10.8183 8 10.9455 8 11.0781V12.0781C8 12.2107 7.94732 12.3379 7.85355 12.4317C7.75979 12.5254 7.63261 12.5781 7.5 12.5781Z" fill="#FE691E"/>
<path d="M9 10.0781C8.86739 10.0781 8.74021 10.0254 8.64645 9.93167C8.55268 9.83791 8.5 9.71073 8.5 9.57812V8.57812C8.5 8.44552 8.55268 8.31834 8.64645 8.22458C8.74021 8.13081 8.86739 8.07812 9 8.07812C9.13261 8.07812 9.25979 8.13081 9.35355 8.22458C9.44732 8.31834 9.5 8.44552 9.5 8.57812V9.57812C9.5 9.71073 9.44732 9.83791 9.35355 9.93167C9.25979 10.0254 9.13261 10.0781 9 10.0781Z" fill="#FF8D54"/>
<path d="M7 8.07812C6.86739 8.07812 6.74021 8.02544 6.64645 7.93167C6.55268 7.83791 6.5 7.71073 6.5 7.57812V6.57812C6.5 6.44552 6.55268 6.31834 6.64645 6.22458C6.74021 6.13081 6.86739 6.07812 7 6.07812C7.13261 6.07812 7.25979 6.13081 7.35355 6.22458C7.44732 6.31834 7.5 6.44552 7.5 6.57812V7.57812C7.5 7.71073 7.44732 7.83791 7.35355 7.93167C7.25979 8.02544 7.13261 8.07812 7 8.07812Z" fill="#FFB895"/>
<path d="M24.5 14.0781C24.3674 14.0781 24.2402 14.0254 24.1464 13.9317C24.0527 13.8379 24 13.7107 24 13.5781V12.5781C24 12.4455 24.0527 12.3183 24.1464 12.2245C24.2402 12.1308 24.3674 12.0781 24.5 12.0781C24.6326 12.0781 24.7598 12.1308 24.8536 12.2245C24.9473 12.3183 25 12.4455 25 12.5781V13.5781C25 13.7107 24.9473 13.8379 24.8536 13.9317C24.7598 14.0254 24.6326 14.0781 24.5 14.0781Z" fill="#FE691E"/>
<path d="M23 10.5781C22.8674 10.5781 22.7402 10.5254 22.6464 10.4317C22.5527 10.3379 22.5 10.2107 22.5 10.0781V9.07812C22.5 8.94552 22.5527 8.81834 22.6464 8.72458C22.7402 8.63081 22.8674 8.57812 23 8.57812C23.1326 8.57812 23.2598 8.63081 23.3536 8.72458C23.4473 8.81834 23.5 8.94552 23.5 9.07812V10.0781C23.5 10.2107 23.4473 10.3379 23.3536 10.4317C23.2598 10.5254 23.1326 10.5781 23 10.5781Z" fill="#FF8D54"/>
<path d="M25 9.07812C24.8674 9.07812 24.7402 9.02544 24.6464 8.93167C24.5527 8.83791 24.5 8.71074 24.5 8.57812V7.07812C24.5 6.94552 24.5527 6.81834 24.6464 6.72458C24.7402 6.63081 24.8674 6.57812 25 6.57812C25.1326 6.57812 25.2598 6.63081 25.3536 6.72458C25.4473 6.81834 25.5 6.94552 25.5 7.07812V8.57812C25.5 8.71074 25.4473 8.83791 25.3536 8.93167C25.2598 9.02544 25.1326 9.07812 25 9.07812Z" fill="#FFB895"/>
<path d="M40.928 20.5781V9.05812H51.44V10.3541H42.224V14.1621H49.632V15.4741H42.224V20.5781H40.928ZM54.3465 20.5781C53.9945 20.5781 53.6692 20.4928 53.3705 20.3221C53.0825 20.1515 52.8532 19.9221 52.6825 19.6341C52.5118 19.3355 52.4265 19.0101 52.4265 18.6581V9.05812H53.7225V18.6581C53.7225 18.8288 53.7812 18.9781 53.8985 19.1061C54.0265 19.2235 54.1758 19.2821 54.3465 19.2821H62.0265C62.1972 19.2821 62.3412 19.2235 62.4585 19.1061C62.5865 18.9781 62.6505 18.8288 62.6505 18.6581V9.05812H63.9465V18.6581C63.9465 19.0101 63.8612 19.3355 63.6905 19.6341C63.5198 19.9221 63.2852 20.1515 62.9865 20.3221C62.6985 20.4928 62.3785 20.5781 62.0265 20.5781H54.3465ZM70.2525 20.5781V10.3541H65.1325V9.05812H76.6525V10.3541H71.5485V20.5781H70.2525ZM79.7371 20.5781C79.3851 20.5781 79.0598 20.4928 78.7611 20.3221C78.4731 20.1515 78.2438 19.9221 78.0731 19.6341C77.9025 19.3355 77.8171 19.0101 77.8171 18.6581V9.05812H79.1131V18.6581C79.1131 18.8288 79.1718 18.9781 79.2891 19.1061C79.4171 19.2235 79.5665 19.2821 79.7371 19.2821H87.4171C87.5878 19.2821 87.7318 19.2235 87.8491 19.1061C87.9771 18.9781 88.0411 18.8288 88.0411 18.6581V9.05812H89.3371V18.6581C89.3371 19.0101 89.2518 19.3355 89.0811 19.6341C88.9105 19.9221 88.6758 20.1515 88.3771 20.3221C88.0891 20.4928 87.7691 20.5781 87.4171 20.5781H79.7371ZM100.827 20.5781L97.0671 16.0981H98.7631L102.539 20.5621V20.5781H100.827ZM91.0991 20.5781V9.07412H100.699C101.051 9.07412 101.371 9.16479 101.659 9.34612C101.958 9.51679 102.192 9.74612 102.363 10.0341C102.534 10.3221 102.619 10.6421 102.619 10.9941V14.3701C102.619 14.7221 102.534 15.0421 102.363 15.3301C102.192 15.6181 101.958 15.8528 101.659 16.0341C101.371 16.2048 101.051 16.2901 100.699 16.2901H92.3951V20.5781H91.0991ZM93.0191 14.9781H100.699C100.87 14.9781 101.014 14.9195 101.131 14.8021C101.259 14.6848 101.323 14.5408 101.323 14.3701V10.9941C101.323 10.8235 101.259 10.6795 101.131 10.5621C101.014 10.4341 100.87 10.3701 100.699 10.3701H93.0191C92.8485 10.3701 92.6991 10.4341 92.5711 10.5621C92.4538 10.6795 92.3951 10.8235 92.3951 10.9941V14.3701C92.3951 14.5408 92.4538 14.6848 92.5711 14.8021C92.6991 14.9195 92.8485 14.9781 93.0191 14.9781ZM104.334 20.5781V9.05812H114.846V10.3541H105.63V14.1621H113.038V15.4741H105.63V19.2821H114.846V20.5781H104.334ZM122.8 20.5781C122.448 20.5781 122.122 20.4928 121.824 20.3221C121.536 20.1515 121.306 19.9221 121.136 19.6341C120.965 19.3355 120.88 19.0101 120.88 18.6581V10.9781C120.88 10.6261 120.965 10.3061 121.136 10.0181C121.306 9.71946 121.536 9.48479 121.824 9.31412C122.122 9.14346 122.448 9.05812 122.8 9.05812H130.48C130.832 9.05812 131.152 9.14346 131.44 9.31412C131.738 9.48479 131.973 9.71946 132.144 10.0181C132.314 10.3061 132.4 10.6261 132.4 10.9781V18.6581C132.4 19.0101 132.314 19.3355 132.144 19.6341C131.973 19.9221 131.738 20.1515 131.44 20.3221C131.152 20.4928 130.832 20.5781 130.48 20.5781H122.8ZM122.8 19.2821H130.48C130.65 19.2821 130.794 19.2235 130.912 19.1061C131.04 18.9781 131.104 18.8288 131.104 18.6581V10.9781C131.104 10.8075 131.04 10.6635 130.912 10.5461C130.794 10.4181 130.65 10.3541 130.48 10.3541H122.8C122.629 10.3541 122.48 10.4181 122.352 10.5461C122.234 10.6635 122.176 10.8075 122.176 10.9781V18.6581C122.176 18.8288 122.234 18.9781 122.352 19.1061C122.48 19.2235 122.629 19.2821 122.8 19.2821ZM134.194 20.5781V9.05812H144.706V10.3541H135.49V14.1621H142.898V15.4741H135.49V20.5781H134.194ZM150.116 20.5781V9.05812H160.628V10.3541H151.412V14.1621H158.82V15.4741H151.412V19.2821H160.628V20.5781H150.116ZM164.174 20.5781C163.822 20.5781 163.496 20.4928 163.198 20.3221C162.91 20.1515 162.68 19.9221 162.51 19.6341C162.339 19.3355 162.254 19.0101 162.254 18.6581V18.2101H163.549V18.6581C163.549 18.8288 163.608 18.9781 163.726 19.1061C163.854 19.2235 164.003 19.2821 164.174 19.2821H171.854C172.024 19.2821 172.168 19.2235 172.286 19.1061C172.414 18.9781 172.478 18.8288 172.478 18.6581V16.0821C172.478 15.9115 172.414 15.7675 172.286 15.6501C172.168 15.5328 172.024 15.4741 171.854 15.4741H164.174C163.822 15.4741 163.496 15.3888 163.198 15.2181C162.91 15.0368 162.68 14.8021 162.51 14.5141C162.339 14.2261 162.254 13.9061 162.254 13.5541V10.9781C162.254 10.6261 162.339 10.3061 162.51 10.0181C162.68 9.71946 162.91 9.48479 163.198 9.31412C163.496 9.14346 163.822 9.05812 164.174 9.05812H171.854C172.206 9.05812 172.526 9.14346 172.814 9.31412C173.112 9.48479 173.347 9.71946 173.518 10.0181C173.688 10.3061 173.774 10.6261 173.774 10.9781V11.4261H172.478V10.9781C172.478 10.8075 172.414 10.6635 172.286 10.5461C172.168 10.4181 172.024 10.3541 171.854 10.3541H164.174C164.003 10.3541 163.854 10.4181 163.726 10.5461C163.608 10.6635 163.549 10.8075 163.549 10.9781V13.5541C163.549 13.7248 163.608 13.8688 163.726 13.9861C163.854 14.1035 164.003 14.1621 164.174 14.1621H171.854C172.206 14.1621 172.526 14.2528 172.814 14.4341C173.112 14.6048 173.347 14.8341 173.518 15.1221C173.688 15.4101 173.774 15.7301 173.774 16.0821V18.6581C173.774 19.0101 173.688 19.3355 173.518 19.6341C173.347 19.9221 173.112 20.1515 172.814 20.3221C172.526 20.4928 172.206 20.5781 171.854 20.5781H164.174ZM175.49 20.5781V9.07412H185.09C185.442 9.07412 185.762 9.16479 186.05 9.34612C186.348 9.51679 186.583 9.74612 186.754 10.0341C186.924 10.3221 187.01 10.6421 187.01 10.9941V14.3701C187.01 14.7221 186.924 15.0421 186.754 15.3301C186.583 15.6181 186.348 15.8528 186.05 16.0341C185.762 16.2048 185.442 16.2901 185.09 16.2901H176.786V20.5781H175.49ZM177.41 14.9781H185.09C185.26 14.9781 185.404 14.9195 185.522 14.8021C185.65 14.6848 185.714 14.5408 185.714 14.3701V10.9941C185.714 10.8235 185.65 10.6795 185.522 10.5621C185.404 10.4341 185.26 10.3701 185.09 10.3701H177.41C177.239 10.3701 177.09 10.4341 176.962 10.5621C176.844 10.6795 176.786 10.8235 176.786 10.9941V14.3701C176.786 14.5408 176.844 14.6848 176.962 14.8021C177.09 14.9195 177.239 14.9781 177.41 14.9781ZM190.034 20.5781C189.682 20.5781 189.357 20.4928 189.058 20.3221C188.77 20.1515 188.541 19.9221 188.37 19.6341C188.199 19.3355 188.114 19.0101 188.114 18.6581V10.9781C188.114 10.6261 188.199 10.3061 188.37 10.0181C188.541 9.71946 188.77 9.48479 189.058 9.31412C189.357 9.14346 189.682 9.05812 190.034 9.05812H197.714C198.066 9.05812 198.386 9.14346 198.674 9.31412C198.973 9.48479 199.207 9.71946 199.378 10.0181C199.549 10.3061 199.634 10.6261 199.634 10.9781V18.6581C199.634 19.0101 199.549 19.3355 199.378 19.6341C199.207 19.9221 198.973 20.1515 198.674 20.3221C198.386 20.4928 198.066 20.5781 197.714 20.5781H190.034ZM190.034 19.2821H197.714C197.885 19.2821 198.029 19.2235 198.146 19.1061C198.274 18.9781 198.338 18.8288 198.338 18.6581V10.9781C198.338 10.8075 198.274 10.6635 198.146 10.5461C198.029 10.4181 197.885 10.3541 197.714 10.3541H190.034C189.863 10.3541 189.714 10.4181 189.586 10.5461C189.469 10.6635 189.41 10.8075 189.41 10.9781V18.6581C189.41 18.8288 189.469 18.9781 189.586 19.1061C189.714 19.2235 189.863 19.2821 190.034 19.2821ZM211.124 20.5781L207.364 16.0981H209.06L212.836 20.5621V20.5781H211.124ZM201.396 20.5781V9.07412H210.996C211.348 9.07412 211.668 9.16479 211.956 9.34612C212.255 9.51679 212.489 9.74612 212.66 10.0341C212.831 10.3221 212.916 10.6421 212.916 10.9941V14.3701C212.916 14.7221 212.831 15.0421 212.66 15.3301C212.489 15.6181 212.255 15.8528 211.956 16.0341C211.668 16.2048 211.348 16.2901 210.996 16.2901H202.692V20.5781H201.396ZM203.316 14.9781H210.996C211.167 14.9781 211.311 14.9195 211.428 14.8021C211.556 14.6848 211.62 14.5408 211.62 14.3701V10.9941C211.62 10.8235 211.556 10.6795 211.428 10.5621C211.311 10.4341 211.167 10.3701 210.996 10.3701H203.316C203.145 10.3701 202.996 10.4341 202.868 10.5621C202.751 10.6795 202.692 10.8235 202.692 10.9941V14.3701C202.692 14.5408 202.751 14.6848 202.868 14.8021C202.996 14.9195 203.145 14.9781 203.316 14.9781ZM219.143 20.5781V10.3541H214.023V9.05812H225.543V10.3541H220.439V20.5781H219.143ZM228.58 20.5781C228.228 20.5781 227.902 20.4928 227.604 20.3221C227.316 20.1515 227.086 19.9221 226.916 19.6341C226.745 19.3355 226.66 19.0101 226.66 18.6581V18.2101H227.956V18.6581C227.956 18.8288 228.014 18.9781 228.132 19.1061C228.26 19.2235 228.409 19.2821 228.58 19.2821H236.26C236.43 19.2821 236.574 19.2235 236.692 19.1061C236.82 18.9781 236.884 18.8288 236.884 18.6581V16.0821C236.884 15.9115 236.82 15.7675 236.692 15.6501C236.574 15.5328 236.43 15.4741 236.26 15.4741H228.58C228.228 15.4741 227.902 15.3888 227.604 15.2181C227.316 15.0368 227.086 14.8021 226.916 14.5141C226.745 14.2261 226.66 13.9061 226.66 13.5541V10.9781C226.66 10.6261 226.745 10.3061 226.916 10.0181C227.086 9.71946 227.316 9.48479 227.604 9.31412C227.902 9.14346 228.228 9.05812 228.58 9.05812H236.26C236.612 9.05812 236.932 9.14346 237.22 9.31412C237.518 9.48479 237.753 9.71946 237.924 10.0181C238.094 10.3061 238.18 10.6261 238.18 10.9781V11.4261H236.884V10.9781C236.884 10.8075 236.82 10.6635 236.692 10.5461C236.574 10.4181 236.43 10.3541 236.26 10.3541H228.58C228.409 10.3541 228.26 10.4181 228.132 10.5461C228.014 10.6635 227.956 10.8075 227.956 10.9781V13.5541C227.956 13.7248 228.014 13.8688 228.132 13.9861C228.26 14.1035 228.409 14.1621 228.58 14.1621H236.26C236.612 14.1621 236.932 14.2528 237.22 14.4341C237.518 14.6048 237.753 14.8341 237.924 15.1221C238.094 15.4101 238.18 15.7301 238.18 16.0821V18.6581C238.18 19.0101 238.094 19.3355 237.924 19.6341C237.753 19.9221 237.518 20.1515 237.22 20.3221C236.932 20.4928 236.612 20.5781 236.26 20.5781H228.58Z" fill="#57B8FF"/>
<defs>
<linearGradient id="paint0_linear_1_264" x1="15.6944" y1="2.07812" x2="15.6944" y2="31.0781" gradientUnits="userSpaceOnUse">
<stop stop-color="#FF9159"/>
<stop offset="0.6875" stop-color="#FF7631"/>
<stop offset="1" stop-color="#FF6A1F"/>
</linearGradient>
</defs>
</svg>
