<svg width="37" height="37" viewBox="0 0 37 37" fill="none" xmlns="http://www.w3.org/2000/svg">
<path d="M0.0560608 18.2851C0.330319 17.385 0.828873 16.5898 1.24987 15.7588C1.69034 14.8918 1.66815 13.9668 1.60168 13.0336C1.574 12.6498 1.56841 12.266 1.59609 11.8849C1.65156 11.0732 2.01438 10.4243 2.63487 9.90525C3.02267 9.57945 3.43257 9.28405 3.85085 8.99961C4.63747 8.46399 5.19699 7.7599 5.54601 6.87916C5.70113 6.48702 5.88953 6.10603 6.05845 5.71668C6.51272 4.67304 7.33541 4.10973 8.44056 3.91645C8.82006 3.8502 9.19678 3.77018 9.57628 3.7122C10.5402 3.56305 11.3573 3.13235 12.0636 2.46971C12.3434 2.20738 12.648 1.96996 12.9389 1.71869C13.7727 1.00085 14.7255 0.815834 15.7809 1.0947C16.0855 1.17471 16.393 1.24106 16.6894 1.34039C17.7863 1.70763 18.8748 1.70215 19.9718 1.34318C20.462 1.18307 20.9634 1.05883 21.4785 0.992484C22.2015 0.901417 22.8413 1.08643 23.4286 1.49781C23.7776 1.7435 24.1155 2.00583 24.4146 2.30681C25.2872 3.18207 26.3426 3.65143 27.5613 3.80057C27.9214 3.84471 28.2759 3.94414 28.6305 4.02415C29.5113 4.2257 30.129 4.75314 30.5196 5.55108C30.7273 5.97621 30.9323 6.40422 31.104 6.84599C31.4641 7.75711 32.0402 8.48332 32.8574 9.03278C33.2784 9.31435 33.6828 9.61532 34.0706 9.94669C34.7188 10.4989 35.0428 11.1919 35.0789 12.0341C35.1038 12.5697 35.065 13.1053 35.0317 13.6382C34.9708 14.566 35.1868 15.4163 35.6439 16.2171C35.8489 16.576 36.0372 16.946 36.2283 17.3104C36.7408 18.2851 36.7381 19.2625 36.2283 20.2372C36.0899 20.505 35.968 20.7866 35.8045 21.0379C35.1121 22.1064 34.9182 23.2716 35.0594 24.5141C35.1038 24.9062 35.0927 25.301 35.065 25.693C35.0012 26.6208 34.5083 27.2945 33.7908 27.8329C33.4584 28.0814 33.1288 28.3327 32.7853 28.5673C32.0153 29.0892 31.4724 29.785 31.129 30.6437C30.9711 31.0357 30.791 31.4195 30.622 31.8088C30.1623 32.8636 29.3396 33.4378 28.2205 33.6283C27.8521 33.6919 27.4837 33.7692 27.1154 33.8272C26.1431 33.979 25.3149 34.4069 24.6003 35.0807C24.3205 35.343 24.0158 35.5804 23.725 35.8317C22.8884 36.5468 21.9356 36.7318 20.883 36.4502C20.5812 36.3701 20.2709 36.3038 19.9745 36.2045C18.8776 35.84 17.7891 35.8455 16.6921 36.2045C16.213 36.3618 15.7199 36.4833 15.2158 36.5496C14.4734 36.6462 13.8115 36.4584 13.2104 36.025C12.8724 35.782 12.5428 35.528 12.2492 35.2326C11.3767 34.3573 10.3213 33.8907 9.10262 33.7416C8.7425 33.6974 8.38798 33.5979 8.03336 33.5179C7.1664 33.3191 6.54871 32.7973 6.1609 32.0131C5.94211 31.5714 5.73441 31.1213 5.5516 30.663C5.19978 29.7822 4.64306 29.0781 3.85636 28.5425C3.42147 28.2471 2.99489 27.9378 2.59329 27.5954C1.95341 27.0515 1.63217 26.3667 1.59059 25.5356C1.5629 24.9476 1.62107 24.365 1.64326 23.7824C1.66815 23.0231 1.53522 22.2997 1.1723 21.6232C0.762404 20.8529 0.319226 20.0992 0.0588561 19.257C0.0560603 18.9312 0.0560608 18.6081 0.0560608 18.2851ZM5.73161 18.749C5.73161 25.6986 11.3795 31.3257 18.3652 31.3118C25.2262 31.2981 30.7717 25.8118 30.9323 19.0802C31.0985 12.0368 25.4561 6.37663 18.62 6.23027C11.4791 6.07564 5.73161 11.8242 5.73161 18.749Z" fill="#141820"/>
</svg>
