<svg width="30" height="37" viewBox="0 0 30 37" fill="none" xmlns="http://www.w3.org/2000/svg">
<path d="M19.7072 0.969727C20.1 1.09936 20.5145 1.08318 20.9155 1.1426C23.9253 1.58814 26.6451 2.71961 29.0833 4.52892C29.2161 4.62879 29.2296 4.68552 29.1185 4.81785C28.043 6.07356 26.9757 7.33197 25.9137 8.59847C25.7945 8.74158 25.7295 8.73889 25.5859 8.63622C23.9469 7.4643 22.1264 6.72704 20.1325 6.44349C17.6862 6.09514 15.3157 6.40304 13.0889 7.47778C9.0795 9.41673 6.67106 12.6005 5.9667 16.9833C5.14591 22.0953 7.80345 27.3448 12.4685 29.7266C16.9575 32.0193 21.3489 31.6925 25.548 28.9111C25.7322 28.7896 25.8026 28.8004 25.9408 28.9652C26.9892 30.2181 28.043 31.463 29.105 32.7025C29.235 32.8538 29.1944 32.9132 29.0563 33.0157C26.9459 34.5848 24.6025 35.6595 22.0235 36.1806C18.1332 36.9692 14.3459 36.5992 10.7673 34.8791C5.42495 32.3082 2.10625 28.0983 0.819464 22.3194C0.678592 21.6821 0.597334 21.0366 0.529604 20.3885C0.524193 20.3372 0.553955 20.2643 0.467285 20.2454C0.467285 19.2571 0.467285 18.2687 0.467285 17.2804C0.551249 17.2587 0.521487 17.1886 0.529604 17.1373C0.586512 16.716 0.629803 16.2947 0.700239 15.8761C1.32605 12.1009 3.00298 8.85234 5.72022 6.15726C8.53766 3.365 11.9375 1.69072 15.8819 1.12903C16.226 1.08048 16.5836 1.10745 16.9114 0.972424C17.8406 0.969727 18.7752 0.969727 19.7072 0.969727Z" fill="#141820"/>
</svg>
