<svg width="19" height="32" viewBox="0 0 19 32" fill="none" xmlns="http://www.w3.org/2000/svg">
<path d="M0.438538 31.7731C1.41941 30.5476 2.37837 29.352 3.33462 28.1509C3.44934 28.0066 3.60239 28.0339 3.74443 28.023C5.68976 27.8596 7.50937 27.2958 9.15411 26.2527C12.5993 24.0712 14.602 20.9638 14.9927 16.9032C15.531 11.3201 12.1622 6.11838 6.84542 4.23913C6.6241 4.1602 6.55583 4.09215 6.6351 3.84969C6.97384 2.8012 7.29626 1.74452 7.60497 0.68785C7.67604 0.448179 7.76623 0.415459 7.99296 0.497177C12.0147 1.92972 15.0802 4.49516 17.0829 8.24809C20.3478 14.3731 19.3506 21.7563 14.5802 26.8273C11.9027 29.6761 8.59126 31.3429 4.69248 31.8331C3.3155 32.0046 1.93853 31.9801 0.564169 31.8112C0.536933 31.8112 0.512311 31.7977 0.438538 31.7731Z" fill="#141820"/>
</svg>
