<svg width="25" height="25" viewBox="0 0 25 25" fill="none" xmlns="http://www.w3.org/2000/svg">
<path d="M12.3185 24.5941C5.74826 24.5941 0.449422 19.3039 0.446626 12.7409C0.44392 6.14741 5.95876 0.768843 12.6481 0.940011C18.9718 1.10291 24.2264 6.28828 24.218 12.7961C24.2097 19.3094 18.8888 24.5941 12.3185 24.5941ZM15.5925 7.65492C14.1079 5.9348 12.2576 5.48755 10.1773 5.79402C8.22182 6.08115 6.80363 7.21046 5.76486 8.82011C4.71229 10.4492 4.49349 12.2522 4.77605 14.138C5.19154 16.9018 7.62352 19.6905 10.8338 19.8285C12.349 19.8948 13.7561 19.5855 14.9333 18.5584C15.1521 18.3679 15.3515 18.1581 15.5925 17.9234C15.5925 18.3651 15.6036 18.7766 15.587 19.1852C15.5787 19.395 15.6341 19.4558 15.8501 19.453C16.8251 19.4419 17.8001 19.4392 18.7724 19.4558C19.0134 19.4586 19.0466 19.3813 19.0466 19.1686C19.0383 17.1089 19.0411 15.0463 19.0411 12.9866C19.0411 10.775 19.0411 8.56056 19.0411 6.34896C19.0411 6.21097 19.0771 6.08115 18.8389 6.08394C17.8251 6.09769 16.8085 6.095 15.7947 6.08664C15.6064 6.08394 15.5842 6.16125 15.587 6.31858C15.5981 6.73831 15.5925 7.15796 15.5925 7.65492Z" fill="#141820"/>
</svg>
