<svg width="17" height="37" viewBox="0 0 17 37" fill="none" xmlns="http://www.w3.org/2000/svg">
<path d="M13.5552 0.996966C13.3203 1.76497 13.0854 2.53028 12.8503 3.29829C11.6564 7.1928 10.4625 11.0873 9.26036 14.9818C9.1947 15.197 9.2057 15.2569 9.45435 15.2842C10.7275 15.4258 11.9952 15.5919 13.2657 15.7417C13.4105 15.758 13.4952 15.8124 13.5716 15.935C14.5252 17.5092 15.4787 19.086 16.4459 20.652C16.5606 20.8372 16.4459 20.9216 16.3585 21.0306C14.6181 23.2039 12.8777 25.3772 11.1373 27.5505C8.80401 30.4618 6.47349 33.3759 4.13756 36.2873C4.05558 36.3907 3.99822 36.5296 3.80423 36.5759C3.93536 36.1484 4.05558 35.7507 4.18121 35.3531C5.52003 31.0446 6.85597 26.7389 8.20301 22.4331C8.27678 22.2016 8.25216 22.1417 8.00351 22.1145C6.76038 21.9756 5.52274 21.8122 4.28231 21.6679C4.08561 21.646 3.96539 21.5834 3.85888 21.4064C2.93537 19.8704 2.00094 18.3425 1.0611 16.8147C0.957299 16.6459 0.962709 16.5423 1.09114 16.3789C5.15938 11.327 9.21932 6.27224 13.2794 1.21479C13.3476 1.13038 13.4187 1.05144 13.4897 0.969727C13.5143 0.983301 13.5334 0.988785 13.5552 0.996966Z" fill="#141820"/>
</svg>
