<svg width="22" height="30" viewBox="0 0 22 30" fill="none" xmlns="http://www.w3.org/2000/svg">
<path d="M10.3663 15.9718C10.2304 15.0403 9.52688 14.5908 8.84498 14.1331C8.15225 13.6673 7.43508 13.2287 6.92165 12.5544C6.19366 11.6013 5.91381 10.5451 6.41913 9.41051C7.14171 7.78847 9.36391 7.33088 10.801 8.53589C11.2383 8.90141 11.5154 8.96911 12.0452 8.7227C13.1942 8.18384 14.4031 8.51422 15.2751 9.49987C16.4378 10.8132 16.7394 12.3459 16.2368 13.9896C15.4381 16.5892 13.7321 18.3818 11.0889 19.1373C9.29871 19.6491 7.53564 19.3701 5.90299 18.4631C3.26511 16.9954 1.5374 14.8182 1.01044 11.8341C0.2443 7.49872 2.05904 3.42603 6.29954 1.46012C10.4912 -0.484129 14.5471 -0.029241 18.2091 2.79781C20.3958 4.48486 21.5585 6.84614 21.7216 9.58923C22.0068 14.3822 19.7928 17.8376 15.6935 20.188C14.3108 20.9814 12.7759 21.3632 11.2438 21.7477C10.3201 21.9806 9.39376 22.2027 8.50813 22.5655C8.20393 22.6901 7.91596 22.8444 7.65514 23.0448C7.49488 23.1694 7.36717 23.3183 7.28844 23.5051C7.22324 23.6622 7.20691 23.8085 7.36176 23.9303C7.52473 24.0576 7.58994 23.8923 7.67958 23.8246C8.78527 23.015 10.043 22.5845 11.3769 22.3435C12.2135 22.1918 13.0557 22.1377 13.8924 22.3435C14.2455 22.4301 14.5689 22.5791 14.8296 22.8363C15.5088 23.5024 15.3648 24.5071 14.5145 25.027C13.9304 25.3844 13.2758 25.5577 12.6102 25.6741C10.9857 25.9558 9.36662 25.9667 7.76652 25.5063C7.63882 25.4684 7.59814 25.5117 7.56279 25.6336C7.5057 25.8204 7.54917 25.9883 7.60897 26.1535C7.67688 26.3403 7.79097 26.5028 7.91867 26.6572C8.32884 27.15 8.38051 27.1527 8.91839 26.8521C10.0729 26.2076 11.2954 25.9017 12.6129 26.2104C13.1644 26.3403 13.6207 26.6355 13.8979 27.1473C14.2157 27.7349 14.0526 28.206 13.4387 28.4795C12.8927 28.7232 12.3059 28.7693 11.7191 28.7775C10.6325 28.7909 9.57847 28.6312 8.58695 28.1709C8.44833 28.1059 8.37231 28.1384 8.27725 28.2277C7.94581 28.5337 7.78826 28.8939 7.91867 29.3461C7.9404 29.4219 7.95673 29.4977 7.9322 29.5763C7.46773 29.1023 7.39982 28.5798 7.74749 27.9705C7.83714 27.8135 7.81811 27.7539 7.67958 27.6455C7.06018 27.1445 6.56848 26.5623 6.56848 25.7094C6.56848 25.0676 6.56307 25.0758 6.22081 24.545C5.79702 23.8896 5.91381 23.2398 6.30234 22.6196C6.72604 21.9481 7.3862 21.5609 8.08163 21.2224C9.228 20.6673 10.4451 20.3044 11.6512 19.9172C13.6017 19.289 15.3539 18.3358 16.8046 16.879C18.4997 15.1756 19.4369 13.1312 19.4586 10.7158C19.4859 7.45809 17.4375 4.57422 14.3298 3.55332C11.5289 2.63537 8.82595 2.83845 6.38648 4.60397C4.56371 5.92549 3.5694 7.7695 3.21353 9.98191C2.63489 13.578 5.01735 16.7191 7.45141 17.954C8.9238 18.7013 10.4152 18.6796 11.855 17.9106C13.8272 16.8545 14.9383 15.1837 15.1095 12.9524C15.1882 11.9478 14.797 11.0705 14.1124 10.334C13.6126 9.79501 12.9334 9.6705 12.2597 9.95485C12.1022 10.0225 12.0858 10.074 12.1593 10.2283C12.4444 10.8241 12.5775 11.4414 12.3657 12.0968C12.0858 12.9578 11.3334 13.4426 10.551 13.2585C9.83659 13.0905 9.4182 12.4732 9.52417 11.7474C9.62735 11.038 9.96699 10.4422 10.4315 9.91152C10.5537 9.77335 10.5646 9.69217 10.4206 9.56217C9.91802 9.10728 9.34488 8.8446 8.65757 8.93396C7.47314 9.08831 6.8293 10.12 7.14171 11.3223C7.33182 12.0535 7.78284 12.6059 8.32884 13.0987C8.76354 13.4913 9.21718 13.8623 9.63826 14.2685C10.0919 14.7045 10.4315 15.2109 10.3962 15.8824C10.3826 15.9014 10.3718 15.9365 10.3663 15.9718ZM9.0515 24.35C10.5701 24.4096 12.0669 24.323 13.5066 23.7651C11.9527 23.4212 10.4858 23.7489 9.0515 24.35ZM11.2465 10.6155C10.8634 10.9622 10.589 11.3521 10.4668 11.8368C10.4206 12.0209 10.437 12.1915 10.6298 12.2999C10.8118 12.4028 10.9884 12.4055 11.1595 12.2809C11.3198 12.1645 11.4067 12.002 11.4665 11.8205C11.6051 11.39 11.4502 11.0136 11.2465 10.6155ZM9.50785 27.5995C10.5945 27.8459 11.6132 27.8323 12.6427 27.5562C12.2678 27.0958 10.3907 27.1933 9.50785 27.5995Z" fill="#141820"/>
</svg>
